# MagicaVoxel @ Ephtracy

# group
g food waiter colour

# material
mtllib food waiter colour.mtl
usemtl palette

# normals
vn -1 0 0
vn 1 0 0
vn 0 0 1
vn 0 0 -1
vn 0 -1 0
vn 0 1 0

# texcoords
vt 0.0566406 0.5
vt 0.115234 0.5
vt 0.291016 0.5
vt 0.384766 0.5
vt 0.392578 0.5
vt 0.490234 0.5
vt 0.826172 0.5
vt 0.892578 0.5
vt 0.958984 0.5
vt 0.966797 0.5
vt 0.994141 0.5

# verts
v -25 27 1
v -25 27 -3
v -25 31 1
v -25 31 -3
v -14 26 2
v -14 26 -4
v -14 27 1
v -14 27 -3
v -14 31 1
v -14 31 -3
v -14 32 2
v -14 32 -4
v -11 19 2
v -11 19 -4
v -11 26 2
v -11 26 -4
v -10 3 4
v -10 3 -4
v -10 5 4
v -10 5 3
v -10 6 3
v -10 6 2
v -10 17 2
v -10 17 -4
v -10 19 2
v -10 19 -4
v -10 30 -0
v -10 30 -1
v -10 31 -0
v -10 31 -1
v -8 4 -0
v -8 4 -1
v -8 5 -0
v -8 5 -1
v -8 39 2
v -8 39 -4
v -8 42 2
v -8 42 -4
v -7 30 2
v -7 30 1
v -7 32 1
v -7 32 -0
v -7 32 -3
v -7 35 2
v -7 35 1
v -7 39 1
v -7 39 -3
v -6 37 2
v -6 37 1
v -6 38 2
v -6 38 1
v -3 24 2
v -3 24 1
v -3 26 2
v -3 26 1
v -2 37 2
v -2 37 1
v -2 38 2
v -2 38 1
v -1 3 4
v -1 3 -4
v -1 5 4
v -1 5 3
v -1 6 3
v -1 6 2
v -1 13 2
v -1 13 -4
v -1 26 2
v -1 26 1
v -1 29 2
v -1 29 1
v -1 31 -2
v -1 31 -4
v -1 32 -2
v -1 32 -3
v -1 32 -4
v 0 29 2
v 0 29 1
v 0 30 2
v 0 30 1
v 2 4 1
v 2 4 -1
v 2 5 1
v 2 5 -1
v 2 30 2
v 2 30 1
v 2 32 2
v 2 32 1
v 6 37 -0
v 6 37 -2
v 6 49 -0
v 6 49 -2
v 15 31 -0
v 15 31 -2
v 15 37 -0
v 15 37 -2
v -14 30 -0
v -14 30 -1
v -14 31 -0
v -14 31 -1
v -9 4 -0
v -9 4 -1
v -9 5 -0
v -9 5 -1
v -9 30 2
v -9 30 1
v -9 32 2
v -9 32 1
v -7 27 2
v -7 27 1
v -7 30 2
v -7 30 1
v -6 3 4
v -6 3 -4
v -6 5 4
v -6 5 3
v -6 6 3
v -6 6 2
v -6 13 2
v -6 13 -4
v -6 26 2
v -6 26 1
v -6 27 2
v -6 27 1
v -6 31 -3
v -6 31 -4
v -6 32 -3
v -6 32 -4
v -5 24 2
v -5 24 1
v -5 26 2
v -5 26 1
v -5 37 2
v -5 37 1
v -5 38 2
v -5 38 1
v -2 31 -2
v -2 31 -3
v -2 32 -2
v -2 32 -3
v -1 37 2
v -1 37 1
v -1 38 2
v -1 38 1
v 0 30 2
v 0 30 1
v 0 32 1
v 0 32 -0
v 0 32 -3
v 0 35 2
v 0 35 1
v 0 39 1
v 0 39 -3
v 1 4 1
v 1 4 -1
v 1 5 1
v 1 5 -1
v 1 39 2
v 1 39 -4
v 1 42 2
v 1 42 -4
v 3 3 4
v 3 3 -4
v 3 5 4
v 3 5 3
v 3 6 3
v 3 6 2
v 3 17 2
v 3 17 -4
v 3 19 2
v 3 19 -4
v 3 26 2
v 3 26 -4
v 7 26 2
v 7 26 -4
v 7 27 1
v 7 27 -3
v 7 31 1
v 7 31 -3
v 7 32 2
v 7 32 -4
v 17 31 -0
v 17 31 -2
v 17 37 -0
v 17 37 -2
v 18 27 1
v 18 27 -3
v 18 31 1
v 18 31 -3
v 25 37 -0
v 25 37 -2
v 25 43 -0
v 25 43 -1
v 25 46 -0
v 25 46 -1
v 25 49 -0
v 25 49 -2
v -10 3 4
v -10 5 4
v -6 3 4
v -6 5 4
v -1 3 4
v -1 5 4
v 3 3 4
v 3 5 4
v -10 5 3
v -10 6 3
v -6 5 3
v -6 6 3
v -1 5 3
v -1 6 3
v 3 5 3
v 3 6 3
v -14 26 2
v -14 32 2
v -11 19 2
v -11 26 2
v -10 6 2
v -10 17 2
v -10 19 2
v -9 30 2
v -9 32 2
v -8 39 2
v -8 42 2
v -7 27 2
v -7 30 2
v -7 35 2
v -6 6 2
v -6 13 2
v -6 26 2
v -6 27 2
v -6 32 2
v -6 34 2
v -6 37 2
v -6 38 2
v -5 17 2
v -5 19 2
v -5 24 2
v -5 26 2
v -5 32 2
v -5 33 2
v -5 37 2
v -5 38 2
v -3 24 2
v -3 26 2
v -2 17 2
v -2 19 2
v -2 32 2
v -2 33 2
v -2 37 2
v -2 38 2
v -1 6 2
v -1 13 2
v -1 26 2
v -1 29 2
v -1 32 2
v -1 34 2
v -1 37 2
v -1 38 2
v 0 29 2
v 0 30 2
v 0 35 2
v 1 39 2
v 1 42 2
v 2 30 2
v 2 32 2
v 3 6 2
v 3 17 2
v 3 19 2
v 3 26 2
v 7 26 2
v 7 32 2
v -25 27 1
v -25 31 1
v -14 27 1
v -14 31 1
v -9 30 1
v -9 32 1
v -7 27 1
v -7 30 1
v -7 32 1
v -7 35 1
v -7 39 1
v -6 26 1
v -6 27 1
v -6 28 1
v -6 29 1
v -6 30 1
v -6 37 1
v -6 38 1
v -5 24 1
v -5 26 1
v -5 28 1
v -5 29 1
v -5 37 1
v -5 38 1
v -3 24 1
v -3 26 1
v -3 28 1
v -3 29 1
v -2 26 1
v -2 28 1
v -2 29 1
v -2 30 1
v -2 37 1
v -2 38 1
v -1 26 1
v -1 29 1
v -1 37 1
v -1 38 1
v 0 29 1
v 0 30 1
v 0 32 1
v 0 35 1
v 0 39 1
v 2 30 1
v 2 32 1
v 7 27 1
v 7 31 1
v 18 27 1
v 18 31 1
v 6 37 -0
v 6 49 -0
v 7 42 -0
v 7 47 -0
v 8 42 -0
v 8 44 -0
v 8 45 -0
v 8 46 -0
v 9 44 -0
v 9 45 -0
v 10 46 -0
v 10 47 -0
v 12 42 -0
v 12 47 -0
v 13 44 -0
v 13 45 -0
v 14 44 -0
v 14 45 -0
v 15 31 -0
v 15 37 -0
v 15 42 -0
v 15 47 -0
v 16 42 -0
v 16 47 -0
v 17 31 -0
v 17 37 -0
v 17 44 -0
v 17 45 -0
v 18 44 -0
v 18 45 -0
v 19 42 -0
v 19 47 -0
v 21 42 -0
v 21 47 -0
v 22 43 -0
v 22 46 -0
v 24 42 -0
v 24 43 -0
v 24 46 -0
v 24 47 -0
v 25 37 -0
v 25 43 -0
v 25 46 -0
v 25 49 -0
v -14 30 -1
v -14 31 -1
v -11 30 -1
v -10 30 -1
v -10 31 -1
v -9 4 -1
v -9 5 -1
v -8 4 -1
v -8 5 -1
v 1 4 -1
v 1 5 -1
v 2 4 -1
v 2 5 -1
v 1 4 1
v 1 5 1
v 2 4 1
v 2 5 1
v -14 30 -0
v -14 31 -0
v -11 30 -0
v -10 30 -0
v -10 31 -0
v -9 4 -0
v -9 5 -0
v -8 4 -0
v -8 5 -0
v -2 31 -2
v -2 32 -2
v -1 31 -2
v -1 32 -2
v 6 37 -2
v 6 49 -2
v 15 31 -2
v 15 37 -2
v 17 31 -2
v 17 37 -2
v 25 37 -2
v 25 49 -2
v -25 27 -3
v -25 31 -3
v -14 27 -3
v -14 31 -3
v -7 32 -3
v -7 39 -3
v -6 31 -3
v -6 32 -3
v -2 31 -3
v -2 32 -3
v -1 32 -3
v 0 32 -3
v 0 39 -3
v 7 27 -3
v 7 31 -3
v 18 27 -3
v 18 31 -3
v -14 26 -4
v -14 32 -4
v -11 19 -4
v -11 26 -4
v -10 3 -4
v -10 17 -4
v -10 19 -4
v -8 39 -4
v -8 42 -4
v -6 3 -4
v -6 13 -4
v -6 31 -4
v -6 32 -4
v -1 3 -4
v -1 13 -4
v -1 31 -4
v -1 32 -4
v 1 39 -4
v 1 42 -4
v 3 3 -4
v 3 17 -4
v 3 19 -4
v 3 26 -4
v 7 26 -4
v 7 32 -4
v -10 3 4
v -6 3 4
v -1 3 4
v 3 3 4
v -10 3 -4
v -6 3 -4
v -1 3 -4
v 3 3 -4
v 1 5 1
v 2 5 1
v -9 5 -0
v -8 5 -0
v -9 5 -1
v -8 5 -1
v 1 5 -1
v 2 5 -1
v -6 13 2
v -1 13 2
v -6 13 -4
v -1 13 -4
v -11 19 2
v -10 19 2
v -11 19 -4
v -10 19 -4
v -14 26 2
v -11 26 2
v 3 26 2
v 7 26 2
v -14 26 -4
v -11 26 -4
v 3 26 -4
v 7 26 -4
v -25 27 1
v -14 27 1
v 7 27 1
v 18 27 1
v -25 27 -3
v -14 27 -3
v 7 27 -3
v 18 27 -3
v -7 30 2
v 0 30 2
v -7 30 1
v -6 30 1
v -2 30 1
v 0 30 1
v -14 31 -0
v -10 31 -0
v -14 31 -1
v -10 31 -1
v -2 32 -2
v -1 32 -2
v -2 32 -3
v -1 32 -3
v -6 37 2
v -5 37 2
v -2 37 2
v -1 37 2
v -6 37 1
v -5 37 1
v -2 37 1
v -1 37 1
v 6 37 -0
v 15 37 -0
v 17 37 -0
v 25 37 -0
v 6 37 -2
v 15 37 -2
v 17 37 -2
v 25 37 -2
v -8 39 2
v 1 39 2
v -7 39 1
v 0 39 1
v -7 39 -3
v 0 39 -3
v -8 39 -4
v 1 39 -4
v 1 4 1
v 2 4 1
v -9 4 -0
v -8 4 -0
v -9 4 -1
v -8 4 -1
v 1 4 -1
v 2 4 -1
v -10 5 4
v -6 5 4
v -1 5 4
v 3 5 4
v -10 5 3
v -6 5 3
v -1 5 3
v 3 5 3
v -10 6 3
v -6 6 3
v -1 6 3
v 3 6 3
v -10 6 2
v -6 6 2
v -1 6 2
v 3 6 2
v -5 24 2
v -3 24 2
v -5 24 1
v -3 24 1
v -6 26 2
v -5 26 2
v -3 26 2
v -1 26 2
v -6 26 1
v -5 26 1
v -3 26 1
v -2 26 1
v -1 26 1
v -7 27 2
v -6 27 2
v -7 27 1
v -6 27 1
v -1 29 2
v 0 29 2
v -1 29 1
v 0 29 1
v -9 30 2
v -7 30 2
v 0 30 2
v 2 30 2
v -9 30 1
v -7 30 1
v 0 30 1
v 2 30 1
v -14 30 -0
v -11 30 -0
v -10 30 -0
v -14 30 -1
v -11 30 -1
v -10 30 -1
v -25 31 1
v -14 31 1
v 7 31 1
v 18 31 1
v 15 31 -0
v 17 31 -0
v -2 31 -2
v -1 31 -2
v 15 31 -2
v 17 31 -2
v -25 31 -3
v -14 31 -3
v -6 31 -3
v -2 31 -3
v 7 31 -3
v 18 31 -3
v -6 31 -4
v -1 31 -4
v -14 32 2
v -9 32 2
v 2 32 2
v 7 32 2
v -9 32 1
v -7 32 1
v 0 32 1
v 2 32 1
v -9 32 -0
v -7 32 -0
v 0 32 -0
v 2 32 -0
v -7 32 -3
v -6 32 -3
v -1 32 -3
v 0 32 -3
v -14 32 -4
v -6 32 -4
v -1 32 -4
v 7 32 -4
v -7 35 2
v 0 35 2
v -7 35 1
v 0 35 1
v -6 38 2
v -5 38 2
v -2 38 2
v -1 38 2
v -6 38 1
v -5 38 1
v -2 38 1
v -1 38 1
v -8 42 2
v 1 42 2
v -8 42 -4
v 1 42 -4
v 6 49 -0
v 25 49 -0
v 6 49 -2
v 25 49 -2

# faces
f 3/5/1 2/5/1 1/5/1
f 4/5/1 2/5/1 3/5/1
f 7/11/1 6/11/1 5/11/1
f 8/11/1 6/11/1 7/11/1
f 9/11/1 7/11/1 5/11/1
f 10/11/1 6/11/1 8/11/1
f 11/11/1 9/11/1 5/11/1
f 11/11/1 10/11/1 9/11/1
f 12/11/1 6/11/1 10/11/1
f 12/11/1 10/11/1 11/11/1
f 15/11/1 14/11/1 13/11/1
f 16/11/1 14/11/1 15/11/1
f 19/11/1 18/11/1 17/11/1
f 20/11/1 18/11/1 19/11/1
f 21/11/1 18/11/1 20/11/1
f 22/11/1 18/11/1 21/11/1
f 23/11/1 18/11/1 22/11/1
f 24/11/1 18/11/1 23/11/1
f 25/10/1 24/10/1 23/10/1
f 26/10/1 24/10/1 25/10/1
f 29/7/1 28/7/1 27/7/1
f 30/7/1 28/7/1 29/7/1
f 33/11/1 32/11/1 31/11/1
f 34/11/1 32/11/1 33/11/1
f 37/11/1 36/11/1 35/11/1
f 38/11/1 36/11/1 37/11/1
f 41/11/1 40/11/1 39/11/1
f 44/11/1 41/11/1 39/11/1
f 45/5/1 43/5/1 42/5/1
f 45/11/1 41/11/1 44/11/1
f 45/5/1 42/5/1 41/5/1
f 46/5/1 43/5/1 45/5/1
f 47/5/1 43/5/1 46/5/1
f 50/11/1 49/11/1 48/11/1
f 51/11/1 49/11/1 50/11/1
f 54/11/1 53/11/1 52/11/1
f 55/11/1 53/11/1 54/11/1
f 58/11/1 57/11/1 56/11/1
f 59/11/1 57/11/1 58/11/1
f 62/11/1 61/11/1 60/11/1
f 63/11/1 61/11/1 62/11/1
f 64/11/1 61/11/1 63/11/1
f 65/11/1 61/11/1 64/11/1
f 66/11/1 61/11/1 65/11/1
f 67/11/1 61/11/1 66/11/1
f 70/11/1 69/11/1 68/11/1
f 71/11/1 69/11/1 70/11/1
f 74/11/1 73/11/1 72/11/1
f 75/11/1 73/11/1 74/11/1
f 76/11/1 73/11/1 75/11/1
f 79/11/1 78/11/1 77/11/1
f 80/11/1 78/11/1 79/11/1
f 83/11/1 82/11/1 81/11/1
f 84/11/1 82/11/1 83/11/1
f 87/11/1 86/11/1 85/11/1
f 88/11/1 86/11/1 87/11/1
f 91/4/1 90/4/1 89/4/1
f 92/4/1 90/4/1 91/4/1
f 95/4/1 94/4/1 93/4/1
f 96/4/1 94/4/1 95/4/1
f 97/5/2 98/5/2 99/5/2
f 99/5/2 98/5/2 100/5/2
f 101/11/2 102/11/2 103/11/2
f 103/11/2 102/11/2 104/11/2
f 105/11/2 106/11/2 107/11/2
f 107/11/2 106/11/2 108/11/2
f 109/11/2 110/11/2 111/11/2
f 111/11/2 110/11/2 112/11/2
f 113/11/2 114/11/2 115/11/2
f 115/11/2 114/11/2 116/11/2
f 116/11/2 114/11/2 117/11/2
f 117/11/2 114/11/2 118/11/2
f 118/11/2 114/11/2 119/11/2
f 119/11/2 114/11/2 120/11/2
f 121/11/2 122/11/2 123/11/2
f 123/11/2 122/11/2 124/11/2
f 125/11/2 126/11/2 127/11/2
f 127/11/2 126/11/2 128/11/2
f 129/11/2 130/11/2 131/11/2
f 131/11/2 130/11/2 132/11/2
f 133/11/2 134/11/2 135/11/2
f 135/11/2 134/11/2 136/11/2
f 137/5/2 138/5/2 139/5/2
f 139/5/2 138/5/2 140/5/2
f 141/11/2 142/11/2 143/11/2
f 143/11/2 142/11/2 144/11/2
f 145/11/2 146/11/2 147/11/2
f 145/11/2 147/11/2 150/11/2
f 148/5/2 149/5/2 151/5/2
f 150/11/2 147/11/2 151/11/2
f 147/5/2 148/5/2 151/5/2
f 151/5/2 149/5/2 152/5/2
f 152/5/2 149/5/2 153/5/2
f 154/11/2 155/11/2 156/11/2
f 156/11/2 155/11/2 157/11/2
f 158/11/2 159/11/2 160/11/2
f 160/11/2 159/11/2 161/11/2
f 162/11/2 163/11/2 164/11/2
f 164/11/2 163/11/2 165/11/2
f 165/11/2 163/11/2 166/11/2
f 166/11/2 163/11/2 167/11/2
f 167/11/2 163/11/2 168/11/2
f 168/11/2 163/11/2 169/11/2
f 168/10/2 169/10/2 170/10/2
f 170/10/2 169/10/2 171/10/2
f 170/11/2 171/11/2 172/11/2
f 172/11/2 171/11/2 173/11/2
f 174/11/2 175/11/2 176/11/2
f 176/11/2 175/11/2 177/11/2
f 174/11/2 176/11/2 178/11/2
f 177/11/2 175/11/2 179/11/2
f 174/11/2 178/11/2 180/11/2
f 178/11/2 179/11/2 180/11/2
f 179/11/2 175/11/2 181/11/2
f 180/11/2 179/11/2 181/11/2
f 182/4/2 183/4/2 184/4/2
f 184/4/2 183/4/2 185/4/2
f 186/5/2 187/5/2 188/5/2
f 188/5/2 187/5/2 189/5/2
f 190/4/2 191/4/2 192/4/2
f 192/4/2 191/4/2 193/4/2
f 192/11/2 193/11/2 194/11/2
f 193/4/2 191/4/2 195/4/2
f 194/11/2 193/11/2 195/11/2
f 194/4/2 195/4/2 196/4/2
f 195/4/2 191/4/2 197/4/2
f 196/4/2 195/4/2 197/4/2
f 200/11/3 199/11/3 198/11/3
f 201/11/3 199/11/3 200/11/3
f 204/11/3 203/11/3 202/11/3
f 205/11/3 203/11/3 204/11/3
f 208/11/3 207/11/3 206/11/3
f 209/11/3 207/11/3 208/11/3
f 212/11/3 211/11/3 210/11/3
f 213/11/3 211/11/3 212/11/3
f 217/11/3 215/11/3 214/11/3
f 220/11/3 217/11/3 216/11/3
f 221/11/3 215/11/3 217/11/3
f 221/11/3 217/11/3 220/11/3
f 222/11/3 215/11/3 221/11/3
f 225/11/3 221/11/3 220/11/3
f 226/11/3 221/11/3 225/11/3
f 228/11/3 219/11/3 218/11/3
f 229/11/3 219/11/3 228/11/3
f 230/11/3 225/11/3 220/11/3
f 231/11/3 225/11/3 230/11/3
f 232/11/3 227/11/3 226/11/3
f 233/11/3 227/11/3 232/11/3
f 236/10/3 220/10/3 219/10/3
f 236/11/3 219/11/3 229/11/3
f 237/11/3 230/11/3 220/11/3
f 237/10/3 220/10/3 236/10/3
f 238/11/3 230/11/3 237/11/3
f 239/11/3 230/11/3 238/11/3
f 240/9/3 233/9/3 232/9/3
f 240/11/3 232/11/3 226/11/3
f 241/9/3 233/9/3 240/9/3
f 242/11/3 235/11/3 234/11/3
f 243/11/3 235/11/3 242/11/3
f 244/11/3 238/11/3 237/11/3
f 244/11/3 237/11/3 236/11/3
f 246/11/3 236/11/3 229/11/3
f 246/11/3 245/11/3 244/11/3
f 246/11/3 244/11/3 236/11/3
f 247/11/3 245/11/3 246/11/3
f 248/11/3 240/11/3 226/11/3
f 248/1/3 241/1/3 240/1/3
f 249/9/3 233/9/3 241/9/3
f 249/1/3 241/1/3 248/1/3
f 253/11/3 246/11/3 229/11/3
f 254/11/3 245/11/3 247/11/3
f 256/11/3 248/11/3 226/11/3
f 256/9/3 249/9/3 248/9/3
f 257/11/3 227/11/3 233/11/3
f 257/9/3 249/9/3 256/9/3
f 257/9/3 233/9/3 249/9/3
f 258/11/3 251/11/3 250/11/3
f 259/11/3 251/11/3 258/11/3
f 260/11/3 255/11/3 254/11/3
f 261/11/3 256/11/3 226/11/3
f 261/11/3 257/11/3 256/11/3
f 262/11/3 227/11/3 257/11/3
f 262/11/3 257/11/3 261/11/3
f 263/11/3 224/11/3 223/11/3
f 264/11/3 224/11/3 263/11/3
f 265/11/3 261/11/3 260/11/3
f 267/11/3 253/11/3 252/11/3
f 268/10/3 247/10/3 246/10/3
f 268/11/3 253/11/3 267/11/3
f 268/11/3 246/11/3 253/11/3
f 269/11/3 260/11/3 254/11/3
f 269/10/3 247/10/3 268/10/3
f 269/11/3 266/11/3 265/11/3
f 269/11/3 254/11/3 247/11/3
f 269/11/3 265/11/3 260/11/3
f 270/11/3 266/11/3 269/11/3
f 271/11/3 266/11/3 270/11/3
f 272/11/3 266/11/3 271/11/3
f 275/5/3 274/5/3 273/5/3
f 276/5/3 274/5/3 275/5/3
f 280/9/3 278/9/3 277/9/3
f 281/9/3 278/9/3 280/9/3
f 285/9/3 280/9/3 279/9/3
f 286/9/3 280/9/3 285/9/3
f 287/9/3 280/9/3 286/9/3
f 288/9/3 280/9/3 287/9/3
f 289/5/3 283/5/3 282/5/3
f 290/5/3 283/5/3 289/5/3
f 292/8/3 285/8/3 284/8/3
f 292/8/3 286/8/3 285/8/3
f 293/9/3 287/9/3 286/9/3
f 293/8/3 286/8/3 292/8/3
f 294/8/3 288/8/3 287/8/3
f 294/9/3 287/9/3 293/9/3
f 295/5/3 289/5/3 282/5/3
f 296/5/3 283/5/3 290/5/3
f 297/8/3 293/8/3 292/8/3
f 297/8/3 292/8/3 291/8/3
f 297/8/3 294/8/3 293/8/3
f 298/8/3 294/8/3 297/8/3
f 299/8/3 294/8/3 298/8/3
f 300/8/3 288/8/3 294/8/3
f 300/8/3 294/8/3 299/8/3
f 301/8/3 299/8/3 298/8/3
f 302/9/3 300/9/3 299/9/3
f 302/8/3 299/8/3 301/8/3
f 303/8/3 288/8/3 300/8/3
f 303/9/3 300/9/3 302/9/3
f 304/8/3 288/8/3 303/8/3
f 305/5/3 296/5/3 295/5/3
f 305/5/3 295/5/3 282/5/3
f 306/5/3 283/5/3 296/5/3
f 306/5/3 296/5/3 305/5/3
f 307/9/3 304/9/3 303/9/3
f 307/9/3 303/9/3 302/9/3
f 307/9/3 302/9/3 301/9/3
f 308/9/3 304/9/3 307/9/3
f 309/5/3 305/5/3 282/5/3
f 310/5/3 283/5/3 306/5/3
f 311/9/3 304/9/3 308/9/3
f 312/9/3 304/9/3 311/9/3
f 314/5/3 309/5/3 282/5/3
f 314/5/3 310/5/3 309/5/3
f 315/5/3 283/5/3 310/5/3
f 315/5/3 310/5/3 314/5/3
f 316/9/3 313/9/3 312/9/3
f 317/9/3 313/9/3 316/9/3
f 320/5/3 319/5/3 318/5/3
f 321/5/3 319/5/3 320/5/3
f 324/4/3 323/4/3 322/4/3
f 325/4/3 323/4/3 324/4/3
f 326/4/3 324/4/3 322/4/3
f 326/11/3 325/11/3 324/11/3
f 327/11/3 325/11/3 326/11/3
f 328/11/3 325/11/3 327/11/3
f 329/11/3 325/11/3 328/11/3
f 330/4/3 327/4/3 326/4/3
f 330/11/3 328/11/3 327/11/3
f 331/4/3 329/4/3 328/4/3
f 331/11/3 328/11/3 330/11/3
f 332/11/3 325/11/3 329/11/3
f 332/4/3 329/4/3 331/4/3
f 332/4/3 331/4/3 330/4/3
f 333/4/3 323/4/3 325/4/3
f 333/11/3 325/11/3 332/11/3
f 334/4/3 332/4/3 330/4/3
f 334/4/3 326/4/3 322/4/3
f 334/4/3 333/4/3 332/4/3
f 334/4/3 330/4/3 326/4/3
f 335/4/3 323/4/3 333/4/3
f 335/4/3 333/4/3 334/4/3
f 336/11/3 335/11/3 334/11/3
f 337/11/3 335/11/3 336/11/3
f 338/11/3 336/11/3 334/11/3
f 338/4/3 337/4/3 336/4/3
f 339/11/3 335/11/3 337/11/3
f 339/4/3 337/4/3 338/4/3
f 341/4/3 334/4/3 322/4/3
f 342/11/3 338/11/3 334/11/3
f 342/11/3 339/11/3 338/11/3
f 342/4/3 334/4/3 341/4/3
f 343/11/3 335/11/3 339/11/3
f 343/11/3 339/11/3 342/11/3
f 343/4/3 323/4/3 335/4/3
f 344/4/3 342/4/3 341/4/3
f 344/4/3 341/4/3 340/4/3
f 344/4/3 343/4/3 342/4/3
f 345/4/3 323/4/3 343/4/3
f 345/4/3 343/4/3 344/4/3
f 346/4/3 344/4/3 340/4/3
f 347/4/3 344/4/3 346/4/3
f 348/11/3 345/11/3 344/11/3
f 349/11/3 345/11/3 348/11/3
f 350/11/3 348/11/3 344/11/3
f 350/4/3 349/4/3 348/4/3
f 351/11/3 345/11/3 349/11/3
f 351/4/3 349/4/3 350/4/3
f 352/4/3 344/4/3 347/4/3
f 352/11/3 350/11/3 344/11/3
f 352/11/3 351/11/3 350/11/3
f 353/4/3 323/4/3 345/4/3
f 353/11/3 351/11/3 352/11/3
f 353/11/3 345/11/3 351/11/3
f 354/4/3 352/4/3 347/4/3
f 354/4/3 353/4/3 352/4/3
f 355/4/3 323/4/3 353/4/3
f 355/4/3 353/4/3 354/4/3
f 356/11/3 355/11/3 354/11/3
f 357/11/3 355/11/3 356/11/3
f 358/4/3 354/4/3 347/4/3
f 358/11/3 356/11/3 354/11/3
f 359/4/3 357/4/3 356/4/3
f 359/11/3 356/11/3 358/11/3
f 360/11/3 355/11/3 357/11/3
f 360/4/3 357/4/3 359/4/3
f 361/4/3 323/4/3 355/4/3
f 361/11/3 355/11/3 360/11/3
f 362/4/3 359/4/3 358/4/3
f 362/4/3 358/4/3 347/4/3
f 363/11/3 360/11/3 359/11/3
f 363/4/3 359/4/3 362/4/3
f 364/4/3 361/4/3 360/4/3
f 364/11/3 360/11/3 363/11/3
f 365/4/3 323/4/3 361/4/3
f 365/4/3 361/4/3 364/4/3
f 368/11/3 367/11/3 366/11/3
f 369/11/3 367/11/3 368/11/3
f 370/11/3 367/11/3 369/11/3
f 373/11/3 372/11/3 371/11/3
f 374/11/3 372/11/3 373/11/3
f 377/11/3 376/11/3 375/11/3
f 378/11/3 376/11/3 377/11/3
f 379/11/4 380/11/4 381/11/4
f 381/11/4 380/11/4 382/11/4
f 383/11/4 384/11/4 385/11/4
f 385/11/4 384/11/4 386/11/4
f 386/11/4 384/11/4 387/11/4
f 388/6/4 389/6/4 390/6/4
f 390/6/4 389/6/4 391/6/4
f 392/3/4 393/3/4 394/3/4
f 394/3/4 393/3/4 395/3/4
f 396/4/4 397/4/4 399/4/4
f 398/4/4 399/4/4 400/4/4
f 399/4/4 397/4/4 401/4/4
f 400/4/4 399/4/4 401/4/4
f 401/4/4 397/4/4 402/4/4
f 402/4/4 397/4/4 403/4/4
f 404/5/4 405/5/4 406/5/4
f 406/5/4 405/5/4 407/5/4
f 408/5/4 409/5/4 411/5/4
f 410/5/4 411/5/4 412/5/4
f 411/5/4 409/5/4 413/5/4
f 412/5/4 411/5/4 413/5/4
f 413/5/4 409/5/4 414/5/4
f 414/5/4 409/5/4 415/5/4
f 415/5/4 409/5/4 416/5/4
f 417/5/4 418/5/4 419/5/4
f 419/5/4 418/5/4 420/5/4
f 421/11/4 422/11/4 424/11/4
f 423/11/4 424/11/4 427/11/4
f 425/11/4 426/11/4 430/11/4
f 430/11/4 426/11/4 431/11/4
f 424/11/4 422/11/4 432/11/4
f 427/11/4 424/11/4 432/11/4
f 432/11/4 422/11/4 433/11/4
f 431/11/4 426/11/4 435/11/4
f 427/11/4 432/11/4 436/11/4
f 428/11/4 429/11/4 438/11/4
f 438/11/4 429/11/4 439/11/4
f 434/11/4 435/11/4 440/11/4
f 426/10/4 427/10/4 441/10/4
f 440/11/4 435/11/4 441/11/4
f 435/11/4 426/11/4 441/11/4
f 436/11/4 437/11/4 442/11/4
f 441/10/4 427/10/4 442/10/4
f 427/11/4 436/11/4 442/11/4
f 442/11/4 437/11/4 443/11/4
f 443/11/4 437/11/4 444/11/4
f 444/11/4 437/11/4 445/11/4
f 450/11/5 447/11/5 446/11/5
f 451/11/5 447/11/5 450/11/5
f 452/11/5 449/11/5 448/11/5
f 453/11/5 449/11/5 452/11/5
f 458/6/5 457/6/5 456/6/5
f 459/6/5 457/6/5 458/6/5
f 460/6/5 455/6/5 454/6/5
f 461/6/5 455/6/5 460/6/5
f 464/11/5 463/11/5 462/11/5
f 465/11/5 463/11/5 464/11/5
f 468/11/5 467/11/5 466/11/5
f 469/11/5 467/11/5 468/11/5
f 474/11/5 471/11/5 470/11/5
f 475/11/5 471/11/5 474/11/5
f 476/11/5 473/11/5 472/11/5
f 477/11/5 473/11/5 476/11/5
f 482/5/5 479/5/5 478/5/5
f 483/5/5 479/5/5 482/5/5
f 484/5/5 481/5/5 480/5/5
f 485/5/5 481/5/5 484/5/5
f 488/11/5 487/11/5 486/11/5
f 489/11/5 487/11/5 488/11/5
f 490/11/5 487/11/5 489/11/5
f 491/11/5 487/11/5 490/11/5
f 494/11/5 493/11/5 492/11/5
f 495/11/5 493/11/5 494/11/5
f 498/5/5 497/5/5 496/5/5
f 499/5/5 497/5/5 498/5/5
f 504/11/5 501/11/5 500/11/5
f 505/11/5 501/11/5 504/11/5
f 506/11/5 503/11/5 502/11/5
f 507/11/5 503/11/5 506/11/5
f 512/4/5 509/4/5 508/4/5
f 513/4/5 509/4/5 512/4/5
f 514/4/5 511/4/5 510/4/5
f 515/4/5 511/4/5 514/4/5
f 518/11/5 517/11/5 516/11/5
f 519/11/5 517/11/5 518/11/5
f 520/11/5 518/11/5 516/11/5
f 521/11/5 517/11/5 519/11/5
f 522/11/5 520/11/5 516/11/5
f 522/11/5 521/11/5 520/11/5
f 523/11/5 517/11/5 521/11/5
f 523/11/5 521/11/5 522/11/5
f 526/11/6 527/11/6 528/11/6
f 528/11/6 527/11/6 529/11/6
f 524/11/6 525/11/6 530/11/6
f 530/11/6 525/11/6 531/11/6
f 532/11/6 533/11/6 536/11/6
f 536/11/6 533/11/6 537/11/6
f 534/11/6 535/11/6 538/11/6
f 538/11/6 535/11/6 539/11/6
f 540/11/6 541/11/6 544/11/6
f 544/11/6 541/11/6 545/11/6
f 542/11/6 543/11/6 546/11/6
f 546/11/6 543/11/6 547/11/6
f 548/11/6 549/11/6 550/11/6
f 550/11/6 549/11/6 551/11/6
f 552/11/6 553/11/6 556/11/6
f 556/11/6 553/11/6 557/11/6
f 554/11/6 555/11/6 558/11/6
f 558/11/6 555/11/6 559/11/6
f 559/11/6 555/11/6 560/11/6
f 561/11/6 562/11/6 563/11/6
f 563/11/6 562/11/6 564/11/6
f 565/11/6 566/11/6 567/11/6
f 567/11/6 566/11/6 568/11/6
f 569/11/6 570/11/6 573/11/6
f 573/11/6 570/11/6 574/11/6
f 571/11/6 572/11/6 575/11/6
f 575/11/6 572/11/6 576/11/6
f 577/7/6 578/7/6 580/7/6
f 578/11/6 579/11/6 581/11/6
f 580/7/6 578/7/6 581/7/6
f 581/11/6 579/11/6 582/11/6
f 585/5/6 586/5/6 587/5/6
f 587/5/6 586/5/6 588/5/6
f 585/5/6 587/5/6 591/5/6
f 588/5/6 586/5/6 592/5/6
f 583/5/6 584/5/6 593/5/6
f 593/5/6 584/5/6 594/5/6
f 589/11/6 590/11/6 596/11/6
f 591/5/6 592/5/6 597/5/6
f 585/5/6 591/5/6 597/5/6
f 592/5/6 586/5/6 598/5/6
f 597/5/6 592/5/6 598/5/6
f 595/11/6 596/11/6 599/11/6
f 596/11/6 590/11/6 600/11/6
f 599/11/6 596/11/6 600/11/6
f 601/11/6 602/11/6 605/11/6
f 603/11/6 604/11/6 608/11/6
f 605/9/6 606/9/6 609/9/6
f 601/11/6 605/11/6 609/11/6
f 609/9/6 606/9/6 610/9/6
f 607/9/6 608/9/6 611/9/6
f 608/11/6 604/11/6 612/11/6
f 611/9/6 608/9/6 612/9/6
f 609/11/6 610/11/6 613/11/6
f 611/11/6 612/11/6 616/11/6
f 601/11/6 609/11/6 617/11/6
f 613/11/6 614/11/6 617/11/6
f 609/11/6 613/11/6 617/11/6
f 617/11/6 614/11/6 618/11/6
f 615/11/6 616/11/6 619/11/6
f 612/11/6 604/11/6 620/11/6
f 619/11/6 616/11/6 620/11/6
f 616/11/6 612/11/6 620/11/6
f 621/11/6 622/11/6 623/11/6
f 623/11/6 622/11/6 624/11/6
f 625/11/6 626/11/6 629/11/6
f 629/11/6 626/11/6 630/11/6
f 627/11/6 628/11/6 631/11/6
f 631/11/6 628/11/6 632/11/6
f 633/11/6 634/11/6 635/11/6
f 635/11/6 634/11/6 636/11/6
f 637/4/6 638/4/6 639/4/6
f 639/4/6 638/4/6 640/4/6
