# MagicaVoxel @ Ephtracy

# group
g shop4_color

# material
mtllib shop4_color.mtl
usemtl palette

# normals
vn -1 0 0
vn 1 0 0
vn 0 0 1
vn 0 0 -1
vn 0 -1 0
vn 0 1 0

# texcoords
vt 0.181641 0.5
vt 0.447266 0.5
vt 0.958984 0.5
vt 0.974609 0.5
vt 0.994141 0.5

# verts
v -14 0 5
v -14 0 4
v -14 12 4
v -14 12 3
v -14 13 5
v -14 13 3
v -13 0 7
v -13 0 5
v -13 0 4
v -13 0 -7
v -13 2 7
v -13 2 6
v -13 2 5
v -13 2 4
v -13 2 -7
v -13 11 7
v -13 11 6
v -13 12 4
v -13 12 3
v -13 13 7
v -13 13 5
v -13 13 3
v -13 13 -7
v -12 0 8
v -12 0 7
v -12 2 8
v -12 2 7
v -12 3 8
v -12 3 7
v -12 10 8
v -12 10 7
v -12 11 8
v -12 11 7
v -12 13 8
v -12 13 7
v -11 0 9
v -11 0 8
v -11 2 9
v -11 2 8
v -11 3 9
v -11 3 8
v -11 10 9
v -11 10 8
v -11 11 9
v -11 11 8
v -11 13 9
v -11 13 8
v -10 0 10
v -10 0 9
v -10 2 10
v -10 2 9
v -10 3 9
v -10 10 12
v -10 10 10
v -10 10 9
v -10 11 12
v -10 11 10
v -10 11 9
v -10 12 2
v -10 12 -1
v -10 13 10
v -10 13 9
v -10 13 2
v -10 13 -1
v 0 1 9
v 0 1 8
v 0 2 9
v 0 2 8
v 0 3 9
v 0 3 8
v 0 10 9
v 0 10 8
v 0 11 9
v 0 11 8
v 0 12 9
v 0 12 8
v 0 13 9
v 0 13 8
v 1 1 8
v 1 1 6
v 1 2 8
v 1 2 6
v 1 3 8
v 1 3 6
v 1 10 8
v 1 10 7
v 1 11 8
v 1 11 7
v 1 11 6
v 1 12 8
v 1 12 6
v 1 13 8
v 1 13 6
v 6 0 8
v 6 0 7
v 6 2 7
v 6 9 8
v 6 9 7
v 8 12 -5
v 8 12 -6
v 8 13 -6
v 8 13 -7
v 8 14 -5
v 8 14 -7
v 9 4 8
v 9 4 7
v 9 5 8
v 9 5 7
v 10 2 8
v 10 2 7
v 10 4 8
v 10 4 7
v 10 5 8
v 10 5 7
v 10 8 8
v 10 8 7
v 12 1 6
v 12 1 -6
v 12 2 6
v 12 2 -6
v 12 11 6
v 12 11 -6
v 12 12 6
v 12 12 -6
v 12 13 6
v 12 13 -6
v -12 1 6
v -12 1 -6
v -12 2 6
v -12 2 -6
v -12 3 6
v -12 10 6
v -12 11 6
v -12 11 -6
v -12 12 6
v -12 12 -6
v -12 13 6
v -12 13 -6
v -11 1 8
v -11 1 6
v -11 2 8
v -11 2 6
v -11 3 8
v -11 3 6
v -11 10 8
v -11 10 6
v -11 11 8
v -11 11 6
v -11 12 8
v -11 12 6
v -11 13 8
v -11 13 6
v -10 1 9
v -10 1 8
v -10 2 9
v -10 2 8
v -10 3 9
v -10 3 8
v -10 10 9
v -10 10 8
v -10 11 9
v -10 11 8
v -10 12 9
v -10 12 8
v -10 13 9
v -10 13 8
v -5 12 2
v -5 12 -1
v -5 13 2
v -5 13 -1
v 0 0 10
v 0 0 9
v 0 2 10
v 0 2 9
v 0 3 9
v 0 10 12
v 0 10 10
v 0 10 9
v 0 11 12
v 0 11 10
v 0 11 9
v 0 13 10
v 0 13 9
v 1 0 9
v 1 0 8
v 1 2 9
v 1 2 8
v 1 3 9
v 1 3 8
v 1 10 9
v 1 10 8
v 1 11 9
v 1 11 8
v 1 13 9
v 1 13 8
v 2 0 8
v 2 0 7
v 2 2 8
v 2 2 7
v 2 3 8
v 2 3 7
v 2 10 8
v 2 10 7
v 2 11 8
v 2 11 7
v 2 13 8
v 2 13 7
v 7 2 8
v 7 2 7
v 7 8 8
v 7 8 7
v 11 0 8
v 11 0 7
v 11 2 7
v 11 9 8
v 11 9 7
v 11 12 -5
v 11 12 -6
v 11 13 -6
v 11 13 -7
v 11 14 -5
v 11 14 -7
v 13 0 7
v 13 0 -7
v 13 2 7
v 13 2 -7
v 13 13 7
v 13 13 -7
v -10 10 12
v -10 11 12
v -9 10 12
v -9 11 12
v -8 10 12
v -8 11 12
v -7 10 12
v -7 11 12
v -6 10 12
v -6 11 12
v -5 10 12
v -5 11 12
v -4 10 12
v -4 11 12
v -3 10 12
v -3 11 12
v -2 10 12
v -2 11 12
v -1 10 12
v -1 11 12
v 0 10 12
v 0 11 12
v -10 0 10
v -10 2 10
v -10 10 10
v -10 11 10
v -10 13 10
v -9 3 10
v -9 10 10
v -9 11 10
v -8 10 10
v -8 11 10
v -7 10 10
v -7 11 10
v -6 10 10
v -6 11 10
v -5 10 10
v -5 11 10
v -4 10 10
v -4 11 10
v -3 10 10
v -3 11 10
v -2 10 10
v -2 11 10
v -1 3 10
v -1 10 10
v -1 11 10
v 0 0 10
v 0 2 10
v 0 10 10
v 0 11 10
v 0 13 10
v -11 0 9
v -11 2 9
v -11 3 9
v -11 10 9
v -11 11 9
v -11 13 9
v -10 0 9
v -10 2 9
v -10 3 9
v -10 10 9
v -10 11 9
v -10 13 9
v 0 0 9
v 0 2 9
v 0 3 9
v 0 10 9
v 0 11 9
v 0 13 9
v 1 0 9
v 1 2 9
v 1 3 9
v 1 10 9
v 1 11 9
v 1 13 9
v -12 0 8
v -12 2 8
v -12 3 8
v -12 10 8
v -12 11 8
v -12 13 8
v -11 0 8
v -11 2 8
v -11 3 8
v -11 10 8
v -11 11 8
v -11 13 8
v 1 0 8
v 1 2 8
v 1 3 8
v 1 10 8
v 1 11 8
v 1 13 8
v 2 0 8
v 2 2 8
v 2 3 8
v 2 10 8
v 2 11 8
v 2 13 8
v 6 0 8
v 6 9 8
v 7 2 8
v 7 8 8
v 9 4 8
v 9 5 8
v 10 2 8
v 10 4 8
v 10 5 8
v 10 8 8
v 11 0 8
v 11 9 8
v -13 0 7
v -13 2 7
v -13 11 7
v -13 13 7
v -12 0 7
v -12 2 7
v -12 3 7
v -12 10 7
v -12 11 7
v -12 13 7
v 2 0 7
v 2 2 7
v 2 3 7
v 2 10 7
v 2 11 7
v 2 13 7
v 3 2 7
v 3 11 7
v 6 0 7
v 6 2 7
v 6 9 7
v 7 2 7
v 7 8 7
v 9 4 7
v 9 5 7
v 10 2 7
v 10 4 7
v 10 5 7
v 10 8 7
v 11 0 7
v 11 2 7
v 11 9 7
v 13 0 7
v 13 2 7
v 13 13 7
v -14 0 5
v -14 13 5
v -13 0 5
v -13 2 5
v -13 13 5
v -10 12 2
v -10 13 2
v -5 12 2
v -5 13 2
v 8 12 -5
v 8 14 -5
v 11 12 -5
v 11 14 -5
v -12 1 -6
v -12 2 -6
v -12 11 -6
v -12 12 -6
v -12 13 -6
v 8 12 -6
v 8 13 -6
v 11 12 -6
v 11 13 -6
v 12 1 -6
v 12 2 -6
v 12 11 -6
v 12 12 -6
v 12 13 -6
v -10 1 9
v -10 2 9
v -10 3 9
v -10 10 9
v -10 11 9
v -10 12 9
v -10 13 9
v -9 3 9
v -9 10 9
v -1 3 9
v -1 10 9
v 0 1 9
v 0 2 9
v 0 3 9
v 0 10 9
v 0 11 9
v 0 12 9
v 0 13 9
v -11 1 8
v -11 2 8
v -11 3 8
v -11 10 8
v -11 11 8
v -11 12 8
v -11 13 8
v -10 1 8
v -10 2 8
v -10 3 8
v -10 10 8
v -10 11 8
v -10 12 8
v -10 13 8
v 0 1 8
v 0 2 8
v 0 3 8
v 0 10 8
v 0 11 8
v 0 12 8
v 0 13 8
v 1 1 8
v 1 2 8
v 1 3 8
v 1 10 8
v 1 11 8
v 1 12 8
v 1 13 8
v -12 1 6
v -12 2 6
v -12 3 6
v -12 10 6
v -12 11 6
v -12 12 6
v -12 13 6
v -11 1 6
v -11 2 6
v -11 3 6
v -11 10 6
v -11 11 6
v -11 12 6
v -11 13 6
v 1 1 6
v 1 2 6
v 1 3 6
v 1 11 6
v 1 12 6
v 1 13 6
v 2 3 6
v 2 11 6
v 3 2 6
v 3 11 6
v 12 1 6
v 12 2 6
v 12 11 6
v 12 12 6
v 12 13 6
v -14 0 4
v -14 12 4
v -13 0 4
v -13 2 4
v -13 12 4
v -14 12 3
v -14 13 3
v -13 12 3
v -13 13 3
v -10 12 -1
v -10 13 -1
v -5 12 -1
v -5 13 -1
v -13 0 -7
v -13 2 -7
v -13 13 -7
v 8 13 -7
v 8 14 -7
v 11 13 -7
v 11 14 -7
v 13 0 -7
v 13 2 -7
v 13 13 -7
v -10 0 10
v 0 0 10
v -11 0 9
v -10 0 9
v 0 0 9
v 1 0 9
v -12 0 8
v -11 0 8
v 1 0 8
v 2 0 8
v 6 0 8
v 11 0 8
v -13 0 7
v -12 0 7
v 2 0 7
v 6 0 7
v 11 0 7
v 13 0 7
v -14 0 5
v -13 0 5
v -14 0 4
v -13 0 4
v -13 0 -7
v 13 0 -7
v 9 4 8
v 10 4 8
v 9 4 7
v 10 4 7
v 7 8 8
v 10 8 8
v 7 8 7
v 10 8 7
v -10 10 12
v -9 10 12
v -8 10 12
v -7 10 12
v -6 10 12
v -5 10 12
v -4 10 12
v -3 10 12
v -2 10 12
v -1 10 12
v 0 10 12
v -10 10 10
v -9 10 10
v -8 10 10
v -7 10 10
v -6 10 10
v -5 10 10
v -4 10 10
v -3 10 10
v -2 10 10
v -1 10 10
v 0 10 10
v -10 11 9
v 0 11 9
v -11 11 8
v -10 11 8
v 0 11 8
v 1 11 8
v 1 11 7
v -12 11 6
v -11 11 6
v 1 11 6
v 2 11 6
v 3 11 6
v 12 11 6
v -12 11 -6
v 12 11 -6
v -14 12 4
v -13 12 4
v -14 12 3
v -13 12 3
v -10 1 9
v 0 1 9
v -11 1 8
v -10 1 8
v 0 1 8
v 1 1 8
v -12 1 6
v -11 1 6
v 1 1 6
v 12 1 6
v -12 1 -6
v 12 1 -6
v 7 2 8
v 10 2 8
v 7 2 7
v 10 2 7
v 9 5 8
v 10 5 8
v 9 5 7
v 10 5 7
v 6 9 8
v 11 9 8
v 6 9 7
v 11 9 7
v -10 11 12
v -9 11 12
v -8 11 12
v -7 11 12
v -6 11 12
v -5 11 12
v -4 11 12
v -3 11 12
v -2 11 12
v -1 11 12
v 0 11 12
v -10 11 10
v -9 11 10
v -8 11 10
v -7 11 10
v -6 11 10
v -5 11 10
v -4 11 10
v -3 11 10
v -2 11 10
v -1 11 10
v 0 11 10
v -10 12 9
v 0 12 9
v -11 12 8
v -10 12 8
v 0 12 8
v 1 12 8
v -12 12 6
v -11 12 6
v 1 12 6
v 12 12 6
v -10 12 2
v -5 12 2
v -10 12 -1
v -5 12 -1
v 8 12 -5
v 11 12 -5
v -12 12 -6
v 8 12 -6
v 11 12 -6
v 12 12 -6
v -10 13 10
v 0 13 10
v -11 13 9
v -10 13 9
v 0 13 9
v 1 13 9
v -12 13 8
v -11 13 8
v -10 13 8
v 0 13 8
v 1 13 8
v 2 13 8
v -13 13 7
v -12 13 7
v 2 13 7
v 13 13 7
v -12 13 6
v -11 13 6
v 1 13 6
v 12 13 6
v -14 13 5
v -13 13 5
v -14 13 3
v -13 13 3
v -10 13 2
v -5 13 2
v -10 13 -1
v -5 13 -1
v -12 13 -6
v 8 13 -6
v 11 13 -6
v 12 13 -6
v -13 13 -7
v 8 13 -7
v 11 13 -7
v 13 13 -7
v 8 14 -5
v 11 14 -5
v 8 14 -7
v 11 14 -7

# faces
f 3/5/1 2/5/1 1/5/1
f 5/5/1 3/5/1 1/5/1
f 5/5/1 4/5/1 3/5/1
f 6/5/1 4/5/1 5/5/1
f 11/1/1 8/1/1 7/1/1
f 12/1/1 8/1/1 11/1/1
f 13/1/1 8/1/1 12/1/1
f 14/1/1 10/1/1 9/1/1
f 15/1/1 10/1/1 14/1/1
f 16/3/1 12/3/1 11/3/1
f 17/2/1 13/2/1 12/2/1
f 17/3/1 12/3/1 16/3/1
f 18/2/1 15/2/1 14/2/1
f 19/2/1 15/2/1 18/2/1
f 20/2/1 17/2/1 16/2/1
f 21/2/1 13/2/1 17/2/1
f 21/2/1 17/2/1 20/2/1
f 22/2/1 15/2/1 19/2/1
f 23/2/1 15/2/1 22/2/1
f 26/1/1 25/1/1 24/1/1
f 27/1/1 25/1/1 26/1/1
f 28/3/1 27/3/1 26/3/1
f 29/3/1 27/3/1 28/3/1
f 30/2/1 29/2/1 28/2/1
f 31/2/1 29/2/1 30/2/1
f 32/3/1 31/3/1 30/3/1
f 33/3/1 31/3/1 32/3/1
f 34/2/1 33/2/1 32/2/1
f 35/2/1 33/2/1 34/2/1
f 38/1/1 37/1/1 36/1/1
f 39/1/1 37/1/1 38/1/1
f 40/3/1 39/3/1 38/3/1
f 41/3/1 39/3/1 40/3/1
f 42/2/1 41/2/1 40/2/1
f 43/2/1 41/2/1 42/2/1
f 44/3/1 43/3/1 42/3/1
f 45/3/1 43/3/1 44/3/1
f 46/2/1 45/2/1 44/2/1
f 47/2/1 45/2/1 46/2/1
f 50/1/1 49/1/1 48/1/1
f 51/1/1 49/1/1 50/1/1
f 52/3/1 51/3/1 50/3/1
f 54/3/1 52/3/1 50/3/1
f 55/3/1 52/3/1 54/3/1
f 56/1/1 54/1/1 53/1/1
f 57/3/1 55/3/1 54/3/1
f 57/1/1 54/1/1 56/1/1
f 58/3/1 55/3/1 57/3/1
f 61/2/1 58/2/1 57/2/1
f 62/2/1 58/2/1 61/2/1
f 63/4/1 60/4/1 59/4/1
f 64/4/1 60/4/1 63/4/1
f 67/1/1 66/1/1 65/1/1
f 68/1/1 66/1/1 67/1/1
f 69/3/1 68/3/1 67/3/1
f 70/3/1 68/3/1 69/3/1
f 71/2/1 70/2/1 69/2/1
f 72/2/1 70/2/1 71/2/1
f 73/3/1 72/3/1 71/3/1
f 74/3/1 72/3/1 73/3/1
f 77/2/1 76/2/1 75/2/1
f 78/2/1 76/2/1 77/2/1
f 81/1/1 80/1/1 79/1/1
f 82/1/1 80/1/1 81/1/1
f 83/3/1 82/3/1 81/3/1
f 84/3/1 82/3/1 83/3/1
f 85/2/1 84/2/1 83/2/1
f 86/2/1 84/2/1 85/2/1
f 87/3/1 86/3/1 85/3/1
f 88/2/1 84/2/1 86/2/1
f 88/3/1 86/3/1 87/3/1
f 89/2/1 84/2/1 88/2/1
f 92/2/1 91/2/1 90/2/1
f 93/2/1 91/2/1 92/2/1
f 96/1/1 95/1/1 94/1/1
f 97/1/1 96/1/1 94/1/1
f 98/1/1 96/1/1 97/1/1
f 101/4/1 100/4/1 99/4/1
f 103/4/1 101/4/1 99/4/1
f 103/4/1 102/4/1 101/4/1
f 104/4/1 102/4/1 103/4/1
f 107/5/1 106/5/1 105/5/1
f 108/5/1 106/5/1 107/5/1
f 111/1/1 110/1/1 109/1/1
f 112/1/1 110/1/1 111/1/1
f 115/1/1 114/1/1 113/1/1
f 116/1/1 114/1/1 115/1/1
f 119/1/1 118/1/1 117/1/1
f 120/1/1 118/1/1 119/1/1
f 121/2/1 120/2/1 119/2/1
f 122/2/1 120/2/1 121/2/1
f 125/2/1 124/2/1 123/2/1
f 126/2/1 124/2/1 125/2/1
f 127/1/2 128/1/2 129/1/2
f 129/1/2 128/1/2 130/1/2
f 129/2/2 130/2/2 131/2/2
f 131/2/2 130/2/2 132/2/2
f 132/2/2 130/2/2 133/2/2
f 133/2/2 130/2/2 134/2/2
f 135/2/2 136/2/2 137/2/2
f 137/2/2 136/2/2 138/2/2
f 139/1/2 140/1/2 141/1/2
f 141/1/2 140/1/2 142/1/2
f 141/3/2 142/3/2 143/3/2
f 143/3/2 142/3/2 144/3/2
f 143/2/2 144/2/2 145/2/2
f 145/2/2 144/2/2 146/2/2
f 145/3/2 146/3/2 147/3/2
f 147/3/2 146/3/2 148/3/2
f 149/2/2 150/2/2 151/2/2
f 151/2/2 150/2/2 152/2/2
f 153/1/2 154/1/2 155/1/2
f 155/1/2 154/1/2 156/1/2
f 155/3/2 156/3/2 157/3/2
f 157/3/2 156/3/2 158/3/2
f 157/2/2 158/2/2 159/2/2
f 159/2/2 158/2/2 160/2/2
f 159/3/2 160/3/2 161/3/2
f 161/3/2 160/3/2 162/3/2
f 163/2/2 164/2/2 165/2/2
f 165/2/2 164/2/2 166/2/2
f 167/4/2 168/4/2 169/4/2
f 169/4/2 168/4/2 170/4/2
f 171/1/2 172/1/2 173/1/2
f 173/1/2 172/1/2 174/1/2
f 173/3/2 174/3/2 175/3/2
f 173/3/2 175/3/2 177/3/2
f 177/3/2 175/3/2 178/3/2
f 176/3/2 177/3/2 179/3/2
f 177/3/2 178/3/2 179/3/2
f 179/3/2 178/3/2 180/3/2
f 180/3/2 178/3/2 181/3/2
f 180/2/2 181/2/2 182/2/2
f 182/2/2 181/2/2 183/2/2
f 184/1/2 185/1/2 186/1/2
f 186/1/2 185/1/2 187/1/2
f 186/3/2 187/3/2 188/3/2
f 188/3/2 187/3/2 189/3/2
f 188/2/2 189/2/2 190/2/2
f 190/2/2 189/2/2 191/2/2
f 190/3/2 191/3/2 192/3/2
f 192/3/2 191/3/2 193/3/2
f 192/2/2 193/2/2 194/2/2
f 194/2/2 193/2/2 195/2/2
f 196/1/2 197/1/2 198/1/2
f 198/1/2 197/1/2 199/1/2
f 198/3/2 199/3/2 200/3/2
f 200/3/2 199/3/2 201/3/2
f 200/2/2 201/2/2 202/2/2
f 202/2/2 201/2/2 203/2/2
f 202/3/2 203/3/2 204/3/2
f 204/3/2 203/3/2 205/3/2
f 204/2/2 205/2/2 206/2/2
f 206/2/2 205/2/2 207/2/2
f 208/1/2 209/1/2 210/1/2
f 210/1/2 209/1/2 211/1/2
f 212/1/2 213/1/2 214/1/2
f 212/1/2 214/1/2 215/1/2
f 215/1/2 214/1/2 216/1/2
f 217/4/2 218/4/2 219/4/2
f 217/4/2 219/4/2 221/4/2
f 219/4/2 220/4/2 221/4/2
f 221/4/2 220/4/2 222/4/2
f 223/1/2 224/1/2 225/1/2
f 225/1/2 224/1/2 226/1/2
f 225/2/2 226/2/2 227/2/2
f 227/2/2 226/2/2 228/2/2
f 231/1/3 230/1/3 229/1/3
f 232/1/3 230/1/3 231/1/3
f 233/3/3 232/3/3 231/3/3
f 234/3/3 232/3/3 233/3/3
f 235/1/3 234/1/3 233/1/3
f 236/1/3 234/1/3 235/1/3
f 237/3/3 236/3/3 235/3/3
f 238/3/3 236/3/3 237/3/3
f 239/1/3 238/1/3 237/1/3
f 240/1/3 238/1/3 239/1/3
f 241/3/3 240/3/3 239/3/3
f 242/3/3 240/3/3 241/3/3
f 243/1/3 242/1/3 241/1/3
f 244/1/3 242/1/3 243/1/3
f 245/3/3 244/3/3 243/3/3
f 246/3/3 244/3/3 245/3/3
f 247/1/3 246/1/3 245/1/3
f 248/1/3 246/1/3 247/1/3
f 249/3/3 248/3/3 247/3/3
f 250/3/3 248/3/3 249/3/3
f 256/3/3 253/3/3 252/3/3
f 257/3/3 253/3/3 256/3/3
f 258/2/3 255/2/3 254/2/3
f 259/2/3 257/2/3 256/2/3
f 260/2/3 255/2/3 258/2/3
f 261/2/3 259/2/3 256/2/3
f 262/2/3 255/2/3 260/2/3
f 263/2/3 261/2/3 256/2/3
f 264/2/3 255/2/3 262/2/3
f 265/2/3 263/2/3 256/2/3
f 266/2/3 255/2/3 264/2/3
f 267/2/3 265/2/3 256/2/3
f 268/2/3 255/2/3 266/2/3
f 269/2/3 267/2/3 256/2/3
f 270/2/3 255/2/3 268/2/3
f 271/2/3 269/2/3 256/2/3
f 272/2/3 255/2/3 270/2/3
f 273/2/3 271/2/3 256/2/3
f 273/3/3 256/3/3 252/3/3
f 274/2/3 271/2/3 273/2/3
f 275/2/3 255/2/3 272/2/3
f 276/1/3 252/1/3 251/1/3
f 277/3/3 274/3/3 273/3/3
f 277/1/3 252/1/3 276/1/3
f 277/3/3 273/3/3 252/3/3
f 278/3/3 274/3/3 277/3/3
f 279/2/3 255/2/3 275/2/3
f 280/2/3 255/2/3 279/2/3
f 287/1/3 282/1/3 281/1/3
f 288/3/3 283/3/3 282/3/3
f 288/1/3 282/1/3 287/1/3
f 289/2/3 284/2/3 283/2/3
f 289/3/3 283/3/3 288/3/3
f 290/3/3 285/3/3 284/3/3
f 290/2/3 284/2/3 289/2/3
f 291/2/3 286/2/3 285/2/3
f 291/3/3 285/3/3 290/3/3
f 292/2/3 286/2/3 291/2/3
f 299/1/3 294/1/3 293/1/3
f 300/3/3 295/3/3 294/3/3
f 300/1/3 294/1/3 299/1/3
f 301/2/3 296/2/3 295/2/3
f 301/3/3 295/3/3 300/3/3
f 302/3/3 297/3/3 296/3/3
f 302/2/3 296/2/3 301/2/3
f 303/2/3 298/2/3 297/2/3
f 303/3/3 297/3/3 302/3/3
f 304/2/3 298/2/3 303/2/3
f 311/1/3 306/1/3 305/1/3
f 312/3/3 307/3/3 306/3/3
f 312/1/3 306/1/3 311/1/3
f 313/2/3 308/2/3 307/2/3
f 313/3/3 307/3/3 312/3/3
f 314/3/3 309/3/3 308/3/3
f 314/2/3 308/2/3 313/2/3
f 315/2/3 310/2/3 309/2/3
f 315/3/3 309/3/3 314/3/3
f 316/2/3 310/2/3 315/2/3
f 323/1/3 318/1/3 317/1/3
f 324/3/3 319/3/3 318/3/3
f 324/1/3 318/1/3 323/1/3
f 325/2/3 320/2/3 319/2/3
f 325/3/3 319/3/3 324/3/3
f 326/3/3 321/3/3 320/3/3
f 326/2/3 320/2/3 325/2/3
f 327/2/3 322/2/3 321/2/3
f 327/3/3 321/3/3 326/3/3
f 328/2/3 322/2/3 327/2/3
f 331/1/3 330/1/3 329/1/3
f 332/1/3 330/1/3 331/1/3
f 335/1/3 331/1/3 329/1/3
f 336/5/3 334/5/3 333/5/3
f 337/5/3 334/5/3 336/5/3
f 338/1/3 330/1/3 332/1/3
f 339/1/3 335/1/3 329/1/3
f 339/1/3 338/1/3 337/1/3
f 339/1/3 337/1/3 336/1/3
f 339/1/3 336/1/3 335/1/3
f 340/1/3 330/1/3 338/1/3
f 340/1/3 338/1/3 339/1/3
f 345/1/3 342/1/3 341/1/3
f 346/3/3 343/3/3 342/3/3
f 346/1/3 342/1/3 345/1/3
f 347/3/3 343/3/3 346/3/3
f 348/3/3 343/3/3 347/3/3
f 349/2/3 344/2/3 343/2/3
f 349/3/3 343/3/3 348/3/3
f 350/2/3 344/2/3 349/2/3
f 357/1/3 352/1/3 351/1/3
f 357/3/3 353/3/3 352/3/3
f 357/3/3 355/3/3 354/3/3
f 357/3/3 354/3/3 353/3/3
f 358/2/3 356/2/3 355/2/3
f 358/3/3 355/3/3 357/3/3
f 359/1/3 357/1/3 351/1/3
f 360/2/3 358/2/3 357/2/3
f 360/1/3 357/1/3 359/1/3
f 361/2/3 358/2/3 360/2/3
f 364/2/3 363/2/3 362/2/3
f 365/2/3 363/2/3 364/2/3
f 366/2/3 364/2/3 362/2/3
f 367/2/3 364/2/3 366/2/3
f 368/2/3 363/2/3 365/2/3
f 369/2/3 363/2/3 368/2/3
f 372/2/3 358/2/3 361/2/3
f 373/1/3 371/1/3 370/1/3
f 374/2/3 372/2/3 371/2/3
f 374/1/3 371/1/3 373/1/3
f 375/2/3 356/2/3 358/2/3
f 375/2/3 372/2/3 374/2/3
f 375/2/3 358/2/3 372/2/3
f 378/5/3 377/5/3 376/5/3
f 379/5/3 377/5/3 378/5/3
f 380/5/3 377/5/3 379/5/3
f 383/4/3 382/4/3 381/4/3
f 384/4/3 382/4/3 383/4/3
f 387/4/3 386/4/3 385/4/3
f 388/4/3 386/4/3 387/4/3
f 394/2/3 393/2/3 392/2/3
f 395/2/3 393/2/3 394/2/3
f 398/1/3 390/1/3 389/1/3
f 399/2/3 391/2/3 390/2/3
f 399/1/3 390/1/3 398/1/3
f 400/2/3 391/2/3 399/2/3
f 401/2/3 397/2/3 396/2/3
f 402/2/3 397/2/3 401/2/3
f 404/3/4 405/3/4 410/3/4
f 405/3/4 406/3/4 410/3/4
f 406/3/4 407/3/4 410/3/4
f 410/3/4 407/3/4 411/3/4
f 404/3/4 410/3/4 412/3/4
f 410/2/4 411/2/4 412/2/4
f 411/3/4 407/3/4 413/3/4
f 412/2/4 411/2/4 413/2/4
f 403/1/4 404/1/4 414/1/4
f 404/3/4 412/3/4 415/3/4
f 414/1/4 404/1/4 415/1/4
f 412/3/4 413/3/4 415/3/4
f 415/3/4 413/3/4 416/3/4
f 413/3/4 407/3/4 417/3/4
f 416/3/4 413/3/4 417/3/4
f 417/3/4 407/3/4 418/3/4
f 408/2/4 409/2/4 419/2/4
f 419/2/4 409/2/4 420/2/4
f 421/1/4 422/1/4 428/1/4
f 422/3/4 423/3/4 429/3/4
f 428/1/4 422/1/4 429/1/4
f 423/2/4 424/2/4 430/2/4
f 429/3/4 423/3/4 430/3/4
f 424/3/4 425/3/4 431/3/4
f 430/2/4 424/2/4 431/2/4
f 431/3/4 425/3/4 432/3/4
f 426/2/4 427/2/4 433/2/4
f 433/2/4 427/2/4 434/2/4
f 435/1/4 436/1/4 442/1/4
f 436/3/4 437/3/4 443/3/4
f 442/1/4 436/1/4 443/1/4
f 437/2/4 438/2/4 444/2/4
f 443/3/4 437/3/4 444/3/4
f 438/3/4 439/3/4 445/3/4
f 444/2/4 438/2/4 445/2/4
f 445/3/4 439/3/4 446/3/4
f 440/2/4 441/2/4 447/2/4
f 447/2/4 441/2/4 448/2/4
f 449/1/4 450/1/4 456/1/4
f 450/3/4 451/3/4 457/3/4
f 456/1/4 450/1/4 457/1/4
f 451/2/4 452/2/4 458/2/4
f 457/3/4 451/3/4 458/3/4
f 452/3/4 453/3/4 459/3/4
f 458/2/4 452/2/4 459/2/4
f 459/3/4 453/3/4 460/3/4
f 454/2/4 455/2/4 461/2/4
f 461/2/4 455/2/4 462/2/4
f 464/3/4 465/3/4 469/3/4
f 465/2/4 466/2/4 469/2/4
f 469/2/4 466/2/4 470/2/4
f 463/1/4 464/1/4 471/1/4
f 464/3/4 469/3/4 471/3/4
f 469/3/4 470/3/4 471/3/4
f 471/3/4 470/3/4 472/3/4
f 463/1/4 471/1/4 473/1/4
f 471/2/4 472/2/4 474/2/4
f 473/1/4 471/1/4 474/1/4
f 474/2/4 472/2/4 475/2/4
f 467/2/4 468/2/4 476/2/4
f 476/2/4 468/2/4 477/2/4
f 478/5/4 479/5/4 480/5/4
f 480/5/4 479/5/4 481/5/4
f 481/5/4 479/5/4 482/5/4
f 483/5/4 484/5/4 485/5/4
f 485/5/4 484/5/4 486/5/4
f 487/4/4 488/4/4 489/4/4
f 489/4/4 488/4/4 490/4/4
f 492/2/4 493/2/4 494/2/4
f 492/2/4 494/2/4 496/2/4
f 494/4/4 495/4/4 496/4/4
f 496/4/4 495/4/4 497/4/4
f 491/1/4 492/1/4 498/1/4
f 492/2/4 496/2/4 499/2/4
f 498/1/4 492/1/4 499/1/4
f 499/2/4 496/2/4 500/2/4
f 504/1/5 502/1/5 501/1/5
f 505/1/5 502/1/5 504/1/5
f 508/1/5 504/1/5 503/1/5
f 508/1/5 506/1/5 505/1/5
f 508/1/5 505/1/5 504/1/5
f 509/1/5 506/1/5 508/1/5
f 514/1/5 508/1/5 507/1/5
f 514/1/5 509/1/5 508/1/5
f 514/1/5 510/1/5 509/1/5
f 515/1/5 510/1/5 514/1/5
f 516/1/5 512/1/5 511/1/5
f 517/1/5 512/1/5 516/1/5
f 520/1/5 515/1/5 514/1/5
f 520/1/5 518/1/5 517/1/5
f 520/1/5 517/1/5 516/1/5
f 520/1/5 516/1/5 515/1/5
f 520/1/5 514/1/5 513/1/5
f 521/5/5 520/5/5 519/5/5
f 522/1/5 518/1/5 520/1/5
f 522/5/5 520/5/5 521/5/5
f 523/1/5 518/1/5 522/1/5
f 524/1/5 518/1/5 523/1/5
f 527/5/5 526/5/5 525/5/5
f 528/5/5 526/5/5 527/5/5
f 531/1/5 530/1/5 529/1/5
f 532/1/5 530/1/5 531/1/5
f 544/1/5 534/1/5 533/1/5
f 545/3/5 535/3/5 534/3/5
f 545/1/5 534/1/5 544/1/5
f 546/1/5 536/1/5 535/1/5
f 546/3/5 535/3/5 545/3/5
f 547/3/5 537/3/5 536/3/5
f 547/1/5 536/1/5 546/1/5
f 548/1/5 538/1/5 537/1/5
f 548/3/5 537/3/5 547/3/5
f 549/3/5 539/3/5 538/3/5
f 549/1/5 538/1/5 548/1/5
f 550/1/5 540/1/5 539/1/5
f 550/3/5 539/3/5 549/3/5
f 551/3/5 541/3/5 540/3/5
f 551/1/5 540/1/5 550/1/5
f 552/1/5 542/1/5 541/1/5
f 552/3/5 541/3/5 551/3/5
f 553/3/5 543/3/5 542/3/5
f 553/1/5 542/1/5 552/1/5
f 554/3/5 543/3/5 553/3/5
f 558/2/5 556/2/5 555/2/5
f 559/2/5 556/2/5 558/2/5
f 561/2/5 558/2/5 557/2/5
f 561/2/5 560/2/5 559/2/5
f 561/2/5 559/2/5 558/2/5
f 563/2/5 561/2/5 557/2/5
f 564/2/5 561/2/5 563/2/5
f 568/2/5 564/2/5 563/2/5
f 568/2/5 567/2/5 566/2/5
f 568/2/5 566/2/5 565/2/5
f 568/2/5 565/2/5 564/2/5
f 568/2/5 563/2/5 562/2/5
f 569/2/5 567/2/5 568/2/5
f 572/5/5 571/5/5 570/5/5
f 573/5/5 571/5/5 572/5/5
f 574/1/6 575/1/6 577/1/6
f 577/1/6 575/1/6 578/1/6
f 576/1/6 577/1/6 581/1/6
f 578/1/6 579/1/6 581/1/6
f 577/1/6 578/1/6 581/1/6
f 581/1/6 579/1/6 582/1/6
f 580/1/6 581/1/6 584/1/6
f 582/1/6 583/1/6 584/1/6
f 581/1/6 582/1/6 584/1/6
f 584/1/6 583/1/6 585/1/6
f 586/1/6 587/1/6 588/1/6
f 588/1/6 587/1/6 589/1/6
f 590/5/6 591/5/6 592/5/6
f 592/5/6 591/5/6 593/5/6
f 594/1/6 595/1/6 596/1/6
f 596/1/6 595/1/6 597/1/6
f 598/1/6 599/1/6 609/1/6
f 599/3/6 600/3/6 610/3/6
f 609/1/6 599/1/6 610/1/6
f 600/1/6 601/1/6 611/1/6
f 610/3/6 600/3/6 611/3/6
f 601/3/6 602/3/6 612/3/6
f 611/1/6 601/1/6 612/1/6
f 602/1/6 603/1/6 613/1/6
f 612/3/6 602/3/6 613/3/6
f 603/3/6 604/3/6 614/3/6
f 613/1/6 603/1/6 614/1/6
f 604/1/6 605/1/6 615/1/6
f 614/3/6 604/3/6 615/3/6
f 605/3/6 606/3/6 616/3/6
f 615/1/6 605/1/6 616/1/6
f 606/1/6 607/1/6 617/1/6
f 616/3/6 606/3/6 617/3/6
f 607/3/6 608/3/6 618/3/6
f 617/1/6 607/1/6 618/1/6
f 618/3/6 608/3/6 619/3/6
f 620/2/6 621/2/6 623/2/6
f 623/2/6 621/2/6 624/2/6
f 622/2/6 623/2/6 627/2/6
f 624/2/6 625/2/6 627/2/6
f 623/2/6 624/2/6 627/2/6
f 627/2/6 625/2/6 628/2/6
f 626/2/6 627/2/6 630/2/6
f 628/2/6 629/2/6 630/2/6
f 627/2/6 628/2/6 630/2/6
f 630/2/6 629/2/6 631/2/6
f 626/2/6 630/2/6 632/2/6
f 631/2/6 629/2/6 633/2/6
f 633/2/6 629/2/6 634/2/6
f 632/2/6 633/2/6 634/2/6
f 634/2/6 629/2/6 635/2/6
f 626/2/6 632/2/6 636/2/6
f 632/2/6 634/2/6 636/2/6
f 636/2/6 634/2/6 637/2/6
f 635/2/6 629/2/6 638/2/6
f 638/2/6 629/2/6 639/2/6
f 640/2/6 641/2/6 643/2/6
f 643/2/6 641/2/6 644/2/6
f 642/2/6 643/2/6 647/2/6
f 647/2/6 643/2/6 648/2/6
f 644/2/6 645/2/6 649/2/6
f 649/2/6 645/2/6 650/2/6
f 646/2/6 647/2/6 653/2/6
f 650/2/6 651/2/6 654/2/6
f 652/2/6 653/2/6 656/2/6
f 653/2/6 647/2/6 656/2/6
f 656/2/6 647/2/6 657/2/6
f 654/2/6 655/2/6 658/2/6
f 650/2/6 654/2/6 658/2/6
f 658/2/6 655/2/6 659/2/6
f 652/2/6 656/2/6 661/2/6
f 660/5/6 661/5/6 662/5/6
f 661/2/6 656/2/6 663/2/6
f 662/5/6 661/5/6 663/5/6
f 664/4/6 665/4/6 666/4/6
f 666/4/6 665/4/6 667/4/6
f 663/2/6 656/2/6 668/2/6
f 659/2/6 655/2/6 671/2/6
f 668/2/6 669/2/6 672/2/6
f 663/2/6 668/2/6 672/2/6
f 672/2/6 669/2/6 673/2/6
f 670/2/6 671/2/6 674/2/6
f 671/2/6 655/2/6 675/2/6
f 674/2/6 671/2/6 675/2/6
f 676/4/6 677/4/6 678/4/6
f 678/4/6 677/4/6 679/4/6
