# MagicaVoxel @ Ephtracy

# group
g shop1_black_n_white

# material
mtllib shop1_black_n_white.mtl
usemtl palette

# normals
vn -1 0 0
vn 1 0 0
vn 0 0 1
vn 0 0 -1
vn 0 -1 0
vn 0 1 0

# texcoords
vt 0.142578 0.5
vt 0.591797 0.5
vt 0.958984 0.5
vt 0.982422 0.5
vt 0.986328 0.5

# verts
v -11 0 6
v -11 0 5
v -11 9 8
v -11 9 6
v -11 9 5
v -11 9 -7
v -11 10 8
v -11 10 -7
v -10 0 5
v -10 0 -6
v -10 9 5
v -10 9 -6
v -10 10 6
v -10 10 -6
v -10 11 6
v -10 11 -6
v 4 9 1
v 4 9 -3
v 4 12 1
v 4 12 -3
v 9 1 5
v 9 1 -5
v 9 3 5
v 9 7 5
v 9 8 5
v 9 8 -5
v 9 9 5
v 9 9 -5
v 9 10 5
v 9 11 5
v 9 11 -5
v -9 1 5
v -9 1 -5
v -9 3 5
v -9 7 5
v -9 8 5
v -9 8 -5
v -9 9 5
v -9 9 -5
v -9 10 5
v -9 11 5
v -9 11 -5
v 7 9 1
v 7 9 -3
v 7 12 1
v 7 12 -3
v 10 0 6
v 10 0 -6
v 10 9 6
v 10 9 -6
v 10 10 6
v 10 10 -6
v 10 11 6
v 10 11 -6
v 11 9 8
v 11 9 -7
v 11 10 8
v 11 10 -7
v -11 9 8
v -11 10 8
v -10 9 8
v -10 10 8
v 10 9 8
v 10 10 8
v 11 9 8
v 11 10 8
v -11 0 6
v -11 9 6
v -10 0 6
v -10 9 6
v -10 10 6
v -10 11 6
v -9 3 6
v -9 7 6
v -5 3 6
v -5 7 6
v -3 0 6
v -3 6 6
v -1 3 6
v -1 4 6
v 1 3 6
v 1 4 6
v 3 0 6
v 3 6 6
v 5 3 6
v 5 7 6
v 9 3 6
v 9 7 6
v 10 0 6
v 10 9 6
v 10 10 6
v 10 11 6
v 4 9 1
v 4 12 1
v 7 9 1
v 7 12 1
v -9 1 -5
v -9 8 -5
v -9 9 -5
v -9 11 -5
v 9 1 -5
v 9 8 -5
v 9 9 -5
v 9 11 -5
v -11 0 5
v -11 9 5
v -10 0 5
v -10 9 5
v -9 1 5
v -9 3 5
v -9 7 5
v -9 8 5
v -9 9 5
v -9 10 5
v -9 11 5
v -5 3 5
v -5 7 5
v -3 1 5
v -3 6 5
v -1 3 5
v -1 4 5
v 1 3 5
v 1 4 5
v 3 1 5
v 3 6 5
v 5 3 5
v 5 7 5
v 9 1 5
v 9 3 5
v 9 7 5
v 9 8 5
v 9 9 5
v 9 10 5
v 9 11 5
v 4 9 -3
v 4 12 -3
v 7 9 -3
v 7 12 -3
v -10 0 -6
v -10 9 -6
v -10 10 -6
v -10 11 -6
v 10 0 -6
v 10 9 -6
v 10 10 -6
v 10 11 -6
v -11 9 -7
v -11 10 -7
v 11 9 -7
v 11 10 -7
v -11 0 6
v -10 0 6
v -3 0 6
v 3 0 6
v 10 0 6
v -11 0 5
v -10 0 5
v -3 0 5
v 3 0 5
v -10 0 -6
v 10 0 -6
v -9 8 5
v 9 8 5
v 4 8 1
v 7 8 1
v 4 8 -3
v 7 8 -3
v -9 8 -5
v 9 8 -5
v -11 9 8
v -10 9 8
v 10 9 8
v 11 9 8
v -11 9 6
v -10 9 6
v 10 9 6
v -11 9 5
v -10 9 5
v -10 9 -6
v 10 9 -6
v -11 9 -7
v 11 9 -7
v -9 1 5
v -3 1 5
v 3 1 5
v 9 1 5
v -9 1 -5
v 9 1 -5
v -9 9 5
v 9 9 5
v 4 9 1
v 7 9 1
v 4 9 -3
v 7 9 -3
v -9 9 -5
v 9 9 -5
v -11 10 8
v -10 10 8
v 10 10 8
v 11 10 8
v -10 10 6
v 10 10 6
v -10 10 -6
v 10 10 -6
v -11 10 -7
v 11 10 -7
v -10 11 6
v 10 11 6
v -9 11 5
v 9 11 5
v -9 11 -5
v 9 11 -5
v -10 11 -6
v 10 11 -6
v 4 12 1
v 7 12 1
v 4 12 -3
v 7 12 -3

# faces
f 4/4/1 2/4/1 1/4/1
f 5/4/1 2/4/1 4/4/1
f 7/4/1 4/4/1 3/4/1
f 7/4/1 6/4/1 5/4/1
f 7/4/1 5/4/1 4/4/1
f 8/4/1 6/4/1 7/4/1
f 11/1/1 10/1/1 9/1/1
f 12/1/1 10/1/1 11/1/1
f 15/1/1 14/1/1 13/1/1
f 16/1/1 14/1/1 15/1/1
f 19/4/1 18/4/1 17/4/1
f 20/4/1 18/4/1 19/4/1
f 23/1/1 22/1/1 21/1/1
f 24/1/1 22/1/1 23/1/1
f 25/1/1 22/1/1 24/1/1
f 26/1/1 22/1/1 25/1/1
f 29/1/1 28/1/1 27/1/1
f 30/1/1 28/1/1 29/1/1
f 31/1/1 28/1/1 30/1/1
f 32/1/2 33/1/2 34/1/2
f 34/1/2 33/1/2 35/1/2
f 35/1/2 33/1/2 36/1/2
f 36/1/2 33/1/2 37/1/2
f 38/1/2 39/1/2 40/1/2
f 40/1/2 39/1/2 41/1/2
f 41/1/2 39/1/2 42/1/2
f 43/4/2 44/4/2 45/4/2
f 45/4/2 44/4/2 46/4/2
f 47/1/2 48/1/2 49/1/2
f 49/1/2 48/1/2 50/1/2
f 51/1/2 52/1/2 53/1/2
f 53/1/2 52/1/2 54/1/2
f 55/4/2 56/4/2 57/4/2
f 57/4/2 56/4/2 58/4/2
f 61/4/3 60/4/3 59/4/3
f 62/4/3 60/4/3 61/4/3
f 63/3/3 62/3/3 61/3/3
f 64/3/3 62/3/3 63/3/3
f 65/4/3 64/4/3 63/4/3
f 66/4/3 64/4/3 65/4/3
f 69/4/3 68/4/3 67/4/3
f 70/4/3 68/4/3 69/4/3
f 73/1/3 70/1/3 69/1/3
f 74/1/3 70/1/3 73/1/3
f 75/1/3 73/1/3 69/1/3
f 75/2/3 74/2/3 73/2/3
f 76/1/3 70/1/3 74/1/3
f 76/2/3 74/2/3 75/2/3
f 77/1/3 75/1/3 69/1/3
f 77/1/3 76/1/3 75/1/3
f 78/1/3 76/1/3 77/1/3
f 79/5/3 78/5/3 77/5/3
f 80/5/3 78/5/3 79/5/3
f 81/5/3 79/5/3 77/5/3
f 81/3/3 80/3/3 79/3/3
f 82/5/3 78/5/3 80/5/3
f 82/3/3 80/3/3 81/3/3
f 83/5/3 81/5/3 77/5/3
f 83/5/3 82/5/3 81/5/3
f 84/1/3 76/1/3 78/1/3
f 84/5/3 82/5/3 83/5/3
f 84/5/3 78/5/3 82/5/3
f 85/1/3 84/1/3 83/1/3
f 86/1/3 70/1/3 76/1/3
f 86/1/3 84/1/3 85/1/3
f 86/1/3 76/1/3 84/1/3
f 87/1/3 85/1/3 83/1/3
f 87/2/3 86/2/3 85/2/3
f 88/1/3 70/1/3 86/1/3
f 88/2/3 86/2/3 87/2/3
f 89/1/3 87/1/3 83/1/3
f 89/1/3 88/1/3 87/1/3
f 90/1/3 70/1/3 88/1/3
f 90/1/3 88/1/3 89/1/3
f 91/1/3 72/1/3 71/1/3
f 92/1/3 72/1/3 91/1/3
f 95/4/3 94/4/3 93/4/3
f 96/4/3 94/4/3 95/4/3
f 101/1/3 98/1/3 97/1/3
f 102/1/3 98/1/3 101/1/3
f 103/1/3 100/1/3 99/1/3
f 104/1/3 100/1/3 103/1/3
f 105/4/4 106/4/4 107/4/4
f 107/4/4 106/4/4 108/4/4
f 109/1/4 110/1/4 116/1/4
f 110/2/4 111/2/4 116/2/4
f 111/1/4 112/1/4 117/1/4
f 116/2/4 111/2/4 117/2/4
f 109/1/4 116/1/4 118/1/4
f 116/1/4 117/1/4 118/1/4
f 118/1/4 117/1/4 119/1/4
f 118/5/4 119/5/4 120/5/4
f 120/5/4 119/5/4 121/5/4
f 118/5/4 120/5/4 122/5/4
f 120/3/4 121/3/4 122/3/4
f 121/5/4 119/5/4 123/5/4
f 122/3/4 121/3/4 123/3/4
f 118/5/4 122/5/4 124/5/4
f 122/5/4 123/5/4 124/5/4
f 119/1/4 117/1/4 125/1/4
f 124/5/4 123/5/4 125/5/4
f 123/5/4 119/5/4 125/5/4
f 124/1/4 125/1/4 126/1/4
f 117/1/4 112/1/4 127/1/4
f 126/1/4 125/1/4 127/1/4
f 125/1/4 117/1/4 127/1/4
f 124/1/4 126/1/4 128/1/4
f 126/2/4 127/2/4 129/2/4
f 128/1/4 126/1/4 129/1/4
f 127/1/4 112/1/4 130/1/4
f 129/2/4 127/2/4 130/2/4
f 130/1/4 112/1/4 131/1/4
f 113/3/4 114/3/4 132/3/4
f 114/1/4 115/1/4 133/1/4
f 132/3/4 114/3/4 133/3/4
f 133/1/4 115/1/4 134/1/4
f 135/4/4 136/4/4 137/4/4
f 137/4/4 136/4/4 138/4/4
f 139/1/4 140/1/4 143/1/4
f 143/1/4 140/1/4 144/1/4
f 141/1/4 142/1/4 145/1/4
f 145/1/4 142/1/4 146/1/4
f 147/4/4 148/4/4 149/4/4
f 149/4/4 148/4/4 150/4/4
f 156/4/5 152/4/5 151/4/5
f 157/1/5 153/1/5 152/1/5
f 157/4/5 152/4/5 156/4/5
f 158/5/5 154/5/5 153/5/5
f 158/1/5 153/1/5 157/1/5
f 159/1/5 155/1/5 154/1/5
f 159/5/5 154/5/5 158/5/5
f 160/1/5 158/1/5 157/1/5
f 160/1/5 159/1/5 158/1/5
f 161/1/5 155/1/5 159/1/5
f 161/1/5 159/1/5 160/1/5
f 164/3/5 163/3/5 162/3/5
f 165/3/5 163/3/5 164/3/5
f 166/3/5 164/3/5 162/3/5
f 166/4/5 165/4/5 164/4/5
f 167/3/5 163/3/5 165/3/5
f 167/4/5 165/4/5 166/4/5
f 168/3/5 166/3/5 162/3/5
f 168/3/5 167/3/5 166/3/5
f 169/3/5 163/3/5 167/3/5
f 169/3/5 167/3/5 168/3/5
f 174/4/5 171/4/5 170/4/5
f 175/3/5 172/3/5 171/3/5
f 175/4/5 171/4/5 174/4/5
f 176/4/5 173/4/5 172/4/5
f 176/3/5 172/3/5 175/3/5
f 179/4/5 178/4/5 177/4/5
f 180/4/5 173/4/5 176/4/5
f 181/4/5 179/4/5 177/4/5
f 181/4/5 180/4/5 179/4/5
f 182/4/5 173/4/5 180/4/5
f 182/4/5 180/4/5 181/4/5
f 183/1/6 184/1/6 187/1/6
f 185/1/6 186/1/6 187/1/6
f 184/1/6 185/1/6 187/1/6
f 187/1/6 186/1/6 188/1/6
f 189/3/6 190/3/6 191/3/6
f 191/3/6 190/3/6 192/3/6
f 189/3/6 191/3/6 193/3/6
f 192/3/6 190/3/6 194/3/6
f 189/3/6 193/3/6 195/3/6
f 193/3/6 194/3/6 195/3/6
f 194/3/6 190/3/6 196/3/6
f 195/3/6 194/3/6 196/3/6
f 197/4/6 198/4/6 201/4/6
f 198/3/6 199/3/6 201/3/6
f 199/4/6 200/4/6 202/4/6
f 201/3/6 199/3/6 202/3/6
f 197/4/6 201/4/6 203/4/6
f 202/4/6 200/4/6 204/4/6
f 197/4/6 203/4/6 205/4/6
f 203/4/6 204/4/6 205/4/6
f 204/4/6 200/4/6 206/4/6
f 205/4/6 204/4/6 206/4/6
f 207/1/6 208/1/6 209/1/6
f 209/1/6 208/1/6 210/1/6
f 207/1/6 209/1/6 211/1/6
f 210/1/6 208/1/6 212/1/6
f 207/1/6 211/1/6 213/1/6
f 211/1/6 212/1/6 213/1/6
f 212/1/6 208/1/6 214/1/6
f 213/1/6 212/1/6 214/1/6
f 215/4/6 216/4/6 217/4/6
f 217/4/6 216/4/6 218/4/6
