# MagicaVoxel @ Ephtracy

# group
g house_1

# material
mtllib house_1.mtl
usemtl palette

# normals
vn -1 0 0
vn 1 0 0
vn 0 0 1
vn 0 0 -1
vn 0 -1 0
vn 0 1 0

# texcoords
vt 0.935547 0.5
vt 0.958984 0.5
vt 0.970703 0.5
vt 0.974609 0.5
vt 0.990234 0.5
vt 0.994141 0.5

# verts
v -13 0 16
v -13 0 10
v -13 0 4
v -13 0 -18
v -13 3 10
v -13 3 9
v -13 4 10
v -13 4 9
v -13 5 -8
v -13 5 -10
v -13 5 -11
v -13 5 -13
v -13 7 10
v -13 7 4
v -13 8 -8
v -13 8 -10
v -13 8 -11
v -13 8 -13
v -13 9 -8
v -13 9 -10
v -13 9 -11
v -13 9 -13
v -13 12 -8
v -13 12 -10
v -13 12 -11
v -13 12 -13
v -13 14 16
v -13 14 -18
v -13 15 16
v -13 15 -18
v -12 15 16
v -12 15 -18
v -12 16 16
v -12 16 -18
v -11 16 16
v -11 16 -18
v -11 17 16
v -11 17 -18
v -10 17 16
v -10 17 -18
v -10 18 16
v -10 18 -18
v -9 18 16
v -9 18 -18
v -9 19 16
v -9 19 -18
v -8 19 16
v -8 19 -18
v -8 20 16
v -8 20 -18
v -7 20 16
v -7 20 -18
v -7 21 16
v -7 21 -18
v -6 21 16
v -6 21 -18
v -6 22 16
v -6 22 -18
v -5 22 16
v -5 22 -18
v -5 23 16
v -5 23 -18
v -4 23 16
v -4 23 -18
v -4 24 16
v -4 24 -18
v -3 19 -18
v -3 19 -19
v -3 21 -18
v -3 21 -19
v -3 24 16
v -3 24 -18
v -3 25 16
v -3 25 -18
v -2 18 -18
v -2 18 -19
v -2 19 -18
v -2 19 -19
v -2 21 -18
v -2 21 -19
v -2 22 -18
v -2 22 -19
v -2 25 16
v -2 25 -18
v -2 26 16
v -2 26 -18
v -1 17 -18
v -1 17 -19
v -1 18 -18
v -1 18 -19
v -1 22 -18
v -1 22 -19
v -1 23 -18
v -1 23 -19
v -1 26 16
v -1 26 -18
v -1 27 16
v -1 27 -18
v 1 26 16
v 1 26 -18
v 1 27 16
v 1 27 -18
v 2 17 -18
v 2 17 -19
v 2 18 -18
v 2 18 -19
v 2 22 -18
v 2 22 -19
v 2 23 -18
v 2 23 -19
v 2 25 16
v 2 25 -18
v 2 26 16
v 2 26 -18
v 3 18 -18
v 3 18 -19
v 3 19 -18
v 3 19 -19
v 3 21 -18
v 3 21 -19
v 3 22 -18
v 3 22 -19
v 3 24 16
v 3 24 -18
v 3 25 16
v 3 25 -18
v 4 19 -18
v 4 19 -19
v 4 21 -18
v 4 21 -19
v 4 23 16
v 4 23 -18
v 4 24 16
v 4 24 -18
v 5 22 16
v 5 22 -18
v 5 23 16
v 5 23 -18
v 6 21 16
v 6 21 -18
v 6 22 16
v 6 22 -18
v 7 20 16
v 7 20 -18
v 7 21 16
v 7 21 -18
v 8 19 16
v 8 19 -18
v 8 20 16
v 8 20 -18
v 9 18 16
v 9 18 -18
v 9 19 16
v 9 19 -18
v 10 17 16
v 10 17 -18
v 10 18 16
v 10 18 -18
v 11 16 16
v 11 16 -18
v 11 17 16
v 11 17 -18
v 12 15 16
v 12 15 -18
v 12 16 16
v 12 16 -18
v 13 0 16
v 13 0 -18
v 13 6 13
v 13 6 10
v 13 6 9
v 13 6 6
v 13 6 -5
v 13 6 -8
v 13 6 -9
v 13 6 -12
v 13 9 13
v 13 9 10
v 13 9 9
v 13 9 6
v 13 9 -5
v 13 9 -8
v 13 9 -9
v 13 9 -12
v 13 10 13
v 13 10 10
v 13 10 9
v 13 10 6
v 13 10 -5
v 13 10 -8
v 13 10 -9
v 13 10 -12
v 13 12 13
v 13 12 10
v 13 12 9
v 13 12 6
v 13 12 -5
v 13 12 -8
v 13 12 -9
v 13 12 -12
v 13 14 16
v 13 14 -18
v 13 15 16
v 13 15 -18
v -13 0 16
v -13 14 16
v -13 15 16
v -12 15 16
v -12 16 16
v -11 16 16
v -11 17 16
v -10 17 16
v -10 18 16
v -9 18 16
v -9 19 16
v -8 19 16
v -8 20 16
v -7 20 16
v -7 21 16
v -6 21 16
v -6 22 16
v -5 22 16
v -5 23 16
v -4 23 16
v -4 24 16
v -3 24 16
v -3 25 16
v -2 25 16
v -2 26 16
v -1 26 16
v -1 27 16
v 1 26 16
v 1 27 16
v 2 25 16
v 2 26 16
v 3 24 16
v 3 25 16
v 4 23 16
v 4 24 16
v 5 22 16
v 5 23 16
v 6 21 16
v 6 22 16
v 7 20 16
v 7 21 16
v 8 19 16
v 8 20 16
v 9 18 16
v 9 19 16
v 10 17 16
v 10 18 16
v 11 16 16
v 11 17 16
v 12 15 16
v 12 16 16
v 13 0 16
v 13 14 16
v 13 15 16
v -13 0 -18
v -13 14 -18
v -13 15 -18
v -12 15 -18
v -12 16 -18
v -11 16 -18
v -11 17 -18
v -10 17 -18
v -10 18 -18
v -9 18 -18
v -9 19 -18
v -8 19 -18
v -8 20 -18
v -7 20 -18
v -7 21 -18
v -6 21 -18
v -6 22 -18
v -5 22 -18
v -5 23 -18
v -4 23 -18
v -4 24 -18
v -3 19 -18
v -3 21 -18
v -3 24 -18
v -3 25 -18
v -2 18 -18
v -2 19 -18
v -2 21 -18
v -2 22 -18
v -2 25 -18
v -2 26 -18
v -1 17 -18
v -1 18 -18
v -1 22 -18
v -1 23 -18
v -1 26 -18
v -1 27 -18
v 1 26 -18
v 1 27 -18
v 2 17 -18
v 2 18 -18
v 2 22 -18
v 2 23 -18
v 2 25 -18
v 2 26 -18
v 3 18 -18
v 3 19 -18
v 3 21 -18
v 3 22 -18
v 3 24 -18
v 3 25 -18
v 4 19 -18
v 4 21 -18
v 4 23 -18
v 4 24 -18
v 5 22 -18
v 5 23 -18
v 6 21 -18
v 6 22 -18
v 7 20 -18
v 7 21 -18
v 8 19 -18
v 8 20 -18
v 9 18 -18
v 9 19 -18
v 10 17 -18
v 10 18 -18
v 11 16 -18
v 11 17 -18
v 12 15 -18
v 12 16 -18
v 13 0 -18
v 13 14 -18
v 13 15 -18
v -3 19 -19
v -3 21 -19
v -2 18 -19
v -2 19 -19
v -2 21 -19
v -2 22 -19
v -1 17 -19
v -1 18 -19
v -1 19 -19
v -1 21 -19
v -1 22 -19
v -1 23 -19
v 0 18 -19
v 0 19 -19
v 0 21 -19
v 0 22 -19
v 1 18 -19
v 1 19 -19
v 1 21 -19
v 1 22 -19
v 2 17 -19
v 2 18 -19
v 2 19 -19
v 2 21 -19
v 2 22 -19
v 2 23 -19
v 3 18 -19
v 3 19 -19
v 3 21 -19
v 3 22 -19
v 4 19 -19
v 4 21 -19
v -13 0 16
v 13 0 16
v -13 0 10
v -12 0 10
v -13 0 4
v -12 0 4
v -13 0 -18
v 13 0 -18
v -1 17 -18
v 2 17 -18
v -1 17 -19
v 2 17 -19
v -2 18 -18
v -1 18 -18
v 2 18 -18
v 3 18 -18
v -2 18 -19
v -1 18 -19
v 2 18 -19
v 3 18 -19
v -3 19 -18
v -2 19 -18
v 3 19 -18
v 4 19 -18
v -3 19 -19
v -2 19 -19
v 3 19 -19
v 4 19 -19
v -13 15 16
v -12 15 16
v 12 15 16
v 13 15 16
v -13 15 -18
v -12 15 -18
v 12 15 -18
v 13 15 -18
v -12 16 16
v -11 16 16
v 11 16 16
v 12 16 16
v -12 16 -18
v -11 16 -18
v 11 16 -18
v 12 16 -18
v -11 17 16
v -10 17 16
v 10 17 16
v 11 17 16
v -11 17 -18
v -10 17 -18
v 10 17 -18
v 11 17 -18
v -10 18 16
v -9 18 16
v 9 18 16
v 10 18 16
v -10 18 -18
v -9 18 -18
v 9 18 -18
v 10 18 -18
v -9 19 16
v -8 19 16
v 8 19 16
v 9 19 16
v -9 19 -18
v -8 19 -18
v 8 19 -18
v 9 19 -18
v -8 20 16
v -7 20 16
v 7 20 16
v 8 20 16
v -8 20 -18
v -7 20 -18
v 7 20 -18
v 8 20 -18
v -7 21 16
v -6 21 16
v 6 21 16
v 7 21 16
v -7 21 -18
v -6 21 -18
v -3 21 -18
v -2 21 -18
v 3 21 -18
v 4 21 -18
v 6 21 -18
v 7 21 -18
v -3 21 -19
v -2 21 -19
v 3 21 -19
v 4 21 -19
v -6 22 16
v -5 22 16
v 5 22 16
v 6 22 16
v -6 22 -18
v -5 22 -18
v -2 22 -18
v -1 22 -18
v 2 22 -18
v 3 22 -18
v 5 22 -18
v 6 22 -18
v -2 22 -19
v -1 22 -19
v 2 22 -19
v 3 22 -19
v -5 23 16
v -4 23 16
v 4 23 16
v 5 23 16
v -5 23 -18
v -4 23 -18
v -1 23 -18
v 2 23 -18
v 4 23 -18
v 5 23 -18
v -1 23 -19
v 2 23 -19
v -4 24 16
v -3 24 16
v 3 24 16
v 4 24 16
v -4 24 -18
v -3 24 -18
v 3 24 -18
v 4 24 -18
v -3 25 16
v -2 25 16
v 2 25 16
v 3 25 16
v -3 25 -18
v -2 25 -18
v 2 25 -18
v 3 25 -18
v -2 26 16
v -1 26 16
v 1 26 16
v 2 26 16
v -2 26 -18
v -1 26 -18
v 1 26 -18
v 2 26 -18
v -1 27 16
v 1 27 16
v -1 27 -18
v 1 27 -18

# faces
f 5/2/1 2/2/1 1/2/1
f 5/4/1 3/4/1 2/4/1
f 6/4/1 3/4/1 5/4/1
f 7/2/1 5/2/1 1/2/1
f 7/5/1 6/5/1 5/5/1
f 8/4/1 3/4/1 6/4/1
f 8/5/1 6/5/1 7/5/1
f 9/2/1 4/2/1 3/2/1
f 10/2/1 4/2/1 9/2/1
f 11/2/1 4/2/1 10/2/1
f 12/2/1 4/2/1 11/2/1
f 13/2/1 7/2/1 1/2/1
f 13/4/1 8/4/1 7/4/1
f 14/4/1 3/4/1 8/4/1
f 14/4/1 8/4/1 13/4/1
f 14/2/1 9/2/1 3/2/1
f 15/4/1 10/4/1 9/4/1
f 15/2/1 9/2/1 14/2/1
f 15/2/1 14/2/1 13/2/1
f 16/5/1 11/5/1 10/5/1
f 16/4/1 10/4/1 15/4/1
f 17/4/1 12/4/1 11/4/1
f 17/5/1 11/5/1 16/5/1
f 18/2/1 4/2/1 12/2/1
f 18/4/1 12/4/1 17/4/1
f 19/5/1 17/5/1 16/5/1
f 19/5/1 16/5/1 15/5/1
f 19/5/1 18/5/1 17/5/1
f 19/2/1 15/2/1 13/2/1
f 20/5/1 18/5/1 19/5/1
f 21/5/1 18/5/1 20/5/1
f 22/2/1 4/2/1 18/2/1
f 22/5/1 18/5/1 21/5/1
f 23/2/1 19/2/1 13/2/1
f 23/4/1 20/4/1 19/4/1
f 24/5/1 21/5/1 20/5/1
f 24/4/1 20/4/1 23/4/1
f 25/4/1 22/4/1 21/4/1
f 25/5/1 21/5/1 24/5/1
f 26/2/1 4/2/1 22/2/1
f 26/4/1 22/4/1 25/4/1
f 27/2/1 13/2/1 1/2/1
f 27/2/1 23/2/1 13/2/1
f 27/2/1 26/2/1 25/2/1
f 27/2/1 24/2/1 23/2/1
f 27/2/1 25/2/1 24/2/1
f 28/2/1 4/2/1 26/2/1
f 28/2/1 26/2/1 27/2/1
f 29/1/1 28/1/1 27/1/1
f 30/1/1 28/1/1 29/1/1
f 33/1/1 32/1/1 31/1/1
f 34/1/1 32/1/1 33/1/1
f 37/1/1 36/1/1 35/1/1
f 38/1/1 36/1/1 37/1/1
f 41/1/1 40/1/1 39/1/1
f 42/1/1 40/1/1 41/1/1
f 45/1/1 44/1/1 43/1/1
f 46/1/1 44/1/1 45/1/1
f 49/1/1 48/1/1 47/1/1
f 50/1/1 48/1/1 49/1/1
f 53/1/1 52/1/1 51/1/1
f 54/1/1 52/1/1 53/1/1
f 57/1/1 56/1/1 55/1/1
f 58/1/1 56/1/1 57/1/1
f 61/1/1 60/1/1 59/1/1
f 62/1/1 60/1/1 61/1/1
f 65/1/1 64/1/1 63/1/1
f 66/1/1 64/1/1 65/1/1
f 69/2/1 68/2/1 67/2/1
f 70/2/1 68/2/1 69/2/1
f 73/1/1 72/1/1 71/1/1
f 74/1/1 72/1/1 73/1/1
f 77/2/1 76/2/1 75/2/1
f 78/2/1 76/2/1 77/2/1
f 81/2/1 80/2/1 79/2/1
f 82/2/1 80/2/1 81/2/1
f 85/1/1 84/1/1 83/1/1
f 86/1/1 84/1/1 85/1/1
f 89/2/1 88/2/1 87/2/1
f 90/2/1 88/2/1 89/2/1
f 93/2/1 92/2/1 91/2/1
f 94/2/1 92/2/1 93/2/1
f 97/1/1 96/1/1 95/1/1
f 98/1/1 96/1/1 97/1/1
f 99/1/2 100/1/2 101/1/2
f 101/1/2 100/1/2 102/1/2
f 103/2/2 104/2/2 105/2/2
f 105/2/2 104/2/2 106/2/2
f 107/2/2 108/2/2 109/2/2
f 109/2/2 108/2/2 110/2/2
f 111/1/2 112/1/2 113/1/2
f 113/1/2 112/1/2 114/1/2
f 115/2/2 116/2/2 117/2/2
f 117/2/2 116/2/2 118/2/2
f 119/2/2 120/2/2 121/2/2
f 121/2/2 120/2/2 122/2/2
f 123/1/2 124/1/2 125/1/2
f 125/1/2 124/1/2 126/1/2
f 127/2/2 128/2/2 129/2/2
f 129/2/2 128/2/2 130/2/2
f 131/1/2 132/1/2 133/1/2
f 133/1/2 132/1/2 134/1/2
f 135/1/2 136/1/2 137/1/2
f 137/1/2 136/1/2 138/1/2
f 139/1/2 140/1/2 141/1/2
f 141/1/2 140/1/2 142/1/2
f 143/1/2 144/1/2 145/1/2
f 145/1/2 144/1/2 146/1/2
f 147/1/2 148/1/2 149/1/2
f 149/1/2 148/1/2 150/1/2
f 151/1/2 152/1/2 153/1/2
f 153/1/2 152/1/2 154/1/2
f 155/1/2 156/1/2 157/1/2
f 157/1/2 156/1/2 158/1/2
f 159/1/2 160/1/2 161/1/2
f 161/1/2 160/1/2 162/1/2
f 163/1/2 164/1/2 165/1/2
f 165/1/2 164/1/2 166/1/2
f 167/2/2 168/2/2 169/2/2
f 169/2/2 168/2/2 170/2/2
f 170/2/2 168/2/2 171/2/2
f 171/2/2 168/2/2 172/2/2
f 172/2/2 168/2/2 173/2/2
f 173/2/2 168/2/2 174/2/2
f 174/2/2 168/2/2 175/2/2
f 175/2/2 168/2/2 176/2/2
f 167/2/2 169/2/2 177/2/2
f 169/4/2 170/4/2 177/4/2
f 170/5/2 171/5/2 178/5/2
f 177/4/2 170/4/2 178/4/2
f 171/4/2 172/4/2 179/4/2
f 178/5/2 171/5/2 179/5/2
f 172/2/2 173/2/2 180/2/2
f 179/4/2 172/4/2 180/4/2
f 173/4/2 174/4/2 181/4/2
f 180/2/2 173/2/2 181/2/2
f 174/5/2 175/5/2 182/5/2
f 181/4/2 174/4/2 182/4/2
f 175/4/2 176/4/2 183/4/2
f 182/5/2 175/5/2 183/5/2
f 176/2/2 168/2/2 184/2/2
f 183/4/2 176/4/2 184/4/2
f 167/2/2 177/2/2 185/2/2
f 177/5/2 178/5/2 185/5/2
f 178/5/2 179/5/2 185/5/2
f 179/5/2 180/5/2 185/5/2
f 185/5/2 180/5/2 186/5/2
f 186/5/2 180/5/2 187/5/2
f 180/2/2 181/2/2 188/2/2
f 187/5/2 180/5/2 188/5/2
f 182/5/2 183/5/2 189/5/2
f 188/2/2 181/2/2 189/2/2
f 181/5/2 182/5/2 189/5/2
f 183/5/2 184/5/2 189/5/2
f 189/5/2 184/5/2 190/5/2
f 190/5/2 184/5/2 191/5/2
f 184/2/2 168/2/2 192/2/2
f 191/5/2 184/5/2 192/5/2
f 185/4/2 186/4/2 193/4/2
f 167/2/2 185/2/2 193/2/2
f 186/5/2 187/5/2 194/5/2
f 193/4/2 186/4/2 194/4/2
f 187/4/2 188/4/2 195/4/2
f 194/5/2 187/5/2 195/5/2
f 188/2/2 189/2/2 196/2/2
f 195/4/2 188/4/2 196/4/2
f 189/4/2 190/4/2 197/4/2
f 196/2/2 189/2/2 197/2/2
f 190/5/2 191/5/2 198/5/2
f 197/4/2 190/4/2 198/4/2
f 191/4/2 192/4/2 199/4/2
f 198/5/2 191/5/2 199/5/2
f 192/2/2 168/2/2 200/2/2
f 199/4/2 192/4/2 200/4/2
f 193/2/2 194/2/2 201/2/2
f 198/2/2 199/2/2 201/2/2
f 199/2/2 200/2/2 201/2/2
f 195/2/2 196/2/2 201/2/2
f 194/2/2 195/2/2 201/2/2
f 167/2/2 193/2/2 201/2/2
f 197/2/2 198/2/2 201/2/2
f 196/2/2 197/2/2 201/2/2
f 200/2/2 168/2/2 202/2/2
f 201/2/2 200/2/2 202/2/2
f 201/1/2 202/1/2 203/1/2
f 203/1/2 202/1/2 204/1/2
f 208/1/3 207/1/3 206/1/3
f 210/1/3 209/1/3 208/1/3
f 212/1/3 211/1/3 210/1/3
f 214/1/3 213/1/3 212/1/3
f 216/1/3 215/1/3 214/1/3
f 218/1/3 217/1/3 216/1/3
f 220/1/3 219/1/3 218/1/3
f 222/1/3 221/1/3 220/1/3
f 224/1/3 223/1/3 222/1/3
f 226/1/3 225/1/3 224/1/3
f 228/1/3 227/1/3 226/1/3
f 230/1/3 229/1/3 228/1/3
f 232/1/3 230/1/3 228/1/3
f 232/1/3 231/1/3 230/1/3
f 233/1/3 231/1/3 232/1/3
f 234/1/3 228/1/3 226/1/3
f 234/1/3 232/1/3 228/1/3
f 235/1/3 232/1/3 234/1/3
f 236/1/3 226/1/3 224/1/3
f 236/1/3 234/1/3 226/1/3
f 237/1/3 234/1/3 236/1/3
f 238/1/3 224/1/3 222/1/3
f 238/1/3 236/1/3 224/1/3
f 239/1/3 236/1/3 238/1/3
f 240/1/3 222/1/3 220/1/3
f 240/1/3 238/1/3 222/1/3
f 241/1/3 238/1/3 240/1/3
f 242/1/3 220/1/3 218/1/3
f 242/1/3 240/1/3 220/1/3
f 243/1/3 240/1/3 242/1/3
f 244/1/3 218/1/3 216/1/3
f 244/1/3 242/1/3 218/1/3
f 245/1/3 242/1/3 244/1/3
f 246/1/3 216/1/3 214/1/3
f 246/1/3 244/1/3 216/1/3
f 247/1/3 244/1/3 246/1/3
f 248/1/3 214/1/3 212/1/3
f 248/1/3 246/1/3 214/1/3
f 249/1/3 246/1/3 248/1/3
f 250/1/3 212/1/3 210/1/3
f 250/1/3 248/1/3 212/1/3
f 251/1/3 248/1/3 250/1/3
f 252/1/3 210/1/3 208/1/3
f 252/1/3 250/1/3 210/1/3
f 253/1/3 250/1/3 252/1/3
f 254/1/3 208/1/3 206/1/3
f 254/1/3 252/1/3 208/1/3
f 255/1/3 252/1/3 254/1/3
f 256/2/3 206/2/3 205/2/3
f 257/1/3 254/1/3 206/1/3
f 257/2/3 206/2/3 256/2/3
f 258/1/3 254/1/3 257/1/3
f 260/1/4 261/1/4 262/1/4
f 262/1/4 263/1/4 264/1/4
f 264/1/4 265/1/4 266/1/4
f 266/1/4 267/1/4 268/1/4
f 268/1/4 269/1/4 270/1/4
f 270/1/4 271/1/4 272/1/4
f 272/1/4 273/1/4 274/1/4
f 274/1/4 275/1/4 276/1/4
f 276/1/4 277/1/4 278/1/4
f 268/1/4 270/1/4 280/1/4
f 278/1/4 279/1/4 280/1/4
f 276/1/4 278/1/4 280/1/4
f 274/1/4 276/1/4 280/1/4
f 272/1/4 274/1/4 280/1/4
f 270/1/4 272/1/4 280/1/4
f 280/1/4 279/1/4 281/1/4
f 281/1/4 279/1/4 282/1/4
f 266/1/4 268/1/4 284/1/4
f 268/1/4 280/1/4 284/1/4
f 284/1/4 280/1/4 285/1/4
f 282/1/4 283/1/4 286/1/4
f 281/1/4 282/1/4 286/1/4
f 286/1/4 283/1/4 287/1/4
f 287/1/4 283/1/4 288/1/4
f 264/1/4 266/1/4 290/1/4
f 266/1/4 284/1/4 290/1/4
f 290/1/4 284/1/4 291/1/4
f 288/1/4 289/1/4 292/1/4
f 287/1/4 288/1/4 292/1/4
f 292/1/4 289/1/4 293/1/4
f 293/1/4 289/1/4 294/1/4
f 294/1/4 295/1/4 296/1/4
f 293/1/4 294/1/4 296/1/4
f 296/1/4 295/1/4 297/1/4
f 264/1/4 290/1/4 298/1/4
f 293/1/4 296/1/4 301/1/4
f 301/1/4 296/1/4 302/1/4
f 302/1/4 296/1/4 303/1/4
f 298/1/4 299/1/4 304/1/4
f 300/1/4 301/1/4 307/1/4
f 301/1/4 302/1/4 307/1/4
f 307/1/4 302/1/4 308/1/4
f 308/1/4 302/1/4 309/1/4
f 304/1/4 305/1/4 310/1/4
f 306/1/4 307/1/4 311/1/4
f 307/1/4 308/1/4 311/1/4
f 311/1/4 308/1/4 312/1/4
f 312/1/4 308/1/4 313/1/4
f 310/1/4 311/1/4 314/1/4
f 311/1/4 312/1/4 314/1/4
f 314/1/4 312/1/4 315/1/4
f 310/1/4 314/1/4 316/1/4
f 316/1/4 314/1/4 317/1/4
f 310/1/4 316/1/4 318/1/4
f 318/1/4 316/1/4 319/1/4
f 304/1/4 310/1/4 320/1/4
f 310/1/4 318/1/4 320/1/4
f 320/1/4 318/1/4 321/1/4
f 298/1/4 304/1/4 322/1/4
f 304/1/4 320/1/4 322/1/4
f 322/1/4 320/1/4 323/1/4
f 264/1/4 298/1/4 324/1/4
f 298/1/4 322/1/4 324/1/4
f 324/1/4 322/1/4 325/1/4
f 262/1/4 264/1/4 326/1/4
f 264/1/4 324/1/4 326/1/4
f 326/1/4 324/1/4 327/1/4
f 260/1/4 262/1/4 328/1/4
f 262/1/4 326/1/4 328/1/4
f 328/1/4 326/1/4 329/1/4
f 259/2/4 260/2/4 330/2/4
f 260/1/4 328/1/4 331/1/4
f 330/2/4 260/2/4 331/2/4
f 331/1/4 328/1/4 332/1/4
f 333/2/4 334/2/4 336/2/4
f 336/2/4 334/2/4 337/2/4
f 335/2/4 336/2/4 340/2/4
f 336/3/4 337/3/4 341/3/4
f 340/2/4 336/2/4 341/2/4
f 337/2/4 338/2/4 342/2/4
f 341/3/4 337/3/4 342/3/4
f 342/2/4 338/2/4 343/2/4
f 340/6/4 341/6/4 345/6/4
f 339/2/4 340/2/4 345/2/4
f 341/3/4 342/3/4 346/3/4
f 345/6/4 341/6/4 346/6/4
f 342/6/4 343/6/4 347/6/4
f 346/3/4 342/3/4 347/3/4
f 343/2/4 344/2/4 348/2/4
f 347/6/4 343/6/4 348/6/4
f 346/3/4 347/3/4 349/3/4
f 345/3/4 346/3/4 349/3/4
f 347/3/4 348/3/4 349/3/4
f 339/2/4 345/2/4 349/2/4
f 349/3/4 348/3/4 350/3/4
f 350/3/4 348/3/4 351/3/4
f 348/2/4 344/2/4 352/2/4
f 351/3/4 348/3/4 352/3/4
f 339/2/4 349/2/4 353/2/4
f 349/6/4 350/6/4 354/6/4
f 353/2/4 349/2/4 354/2/4
f 350/3/4 351/3/4 355/3/4
f 354/6/4 350/6/4 355/6/4
f 351/6/4 352/6/4 356/6/4
f 355/3/4 351/3/4 356/3/4
f 352/2/4 344/2/4 357/2/4
f 356/6/4 352/6/4 357/6/4
f 357/2/4 344/2/4 358/2/4
f 354/2/4 355/2/4 359/2/4
f 355/3/4 356/3/4 360/3/4
f 359/2/4 355/2/4 360/2/4
f 356/2/4 357/2/4 361/2/4
f 360/3/4 356/3/4 361/3/4
f 361/2/4 357/2/4 362/2/4
f 360/2/4 361/2/4 363/2/4
f 363/2/4 361/2/4 364/2/4
f 367/2/5 366/2/5 365/2/5
f 368/2/5 366/2/5 367/2/5
f 369/4/5 368/4/5 367/4/5
f 370/2/5 366/2/5 368/2/5
f 370/4/5 368/4/5 369/4/5
f 371/2/5 370/2/5 369/2/5
f 372/2/5 366/2/5 370/2/5
f 372/2/5 370/2/5 371/2/5
f 375/2/5 374/2/5 373/2/5
f 376/2/5 374/2/5 375/2/5
f 381/2/5 378/2/5 377/2/5
f 382/2/5 378/2/5 381/2/5
f 383/2/5 380/2/5 379/2/5
f 384/2/5 380/2/5 383/2/5
f 389/2/5 386/2/5 385/2/5
f 390/2/5 386/2/5 389/2/5
f 391/2/5 388/2/5 387/2/5
f 392/2/5 388/2/5 391/2/5
f 393/1/6 394/1/6 397/1/6
f 397/1/6 394/1/6 398/1/6
f 395/1/6 396/1/6 399/1/6
f 399/1/6 396/1/6 400/1/6
f 401/1/6 402/1/6 405/1/6
f 405/1/6 402/1/6 406/1/6
f 403/1/6 404/1/6 407/1/6
f 407/1/6 404/1/6 408/1/6
f 409/1/6 410/1/6 413/1/6
f 413/1/6 410/1/6 414/1/6
f 411/1/6 412/1/6 415/1/6
f 415/1/6 412/1/6 416/1/6
f 417/1/6 418/1/6 421/1/6
f 421/1/6 418/1/6 422/1/6
f 419/1/6 420/1/6 423/1/6
f 423/1/6 420/1/6 424/1/6
f 425/1/6 426/1/6 429/1/6
f 429/1/6 426/1/6 430/1/6
f 427/1/6 428/1/6 431/1/6
f 431/1/6 428/1/6 432/1/6
f 433/1/6 434/1/6 437/1/6
f 437/1/6 434/1/6 438/1/6
f 435/1/6 436/1/6 439/1/6
f 439/1/6 436/1/6 440/1/6
f 441/1/6 442/1/6 445/1/6
f 445/1/6 442/1/6 446/1/6
f 443/1/6 444/1/6 451/1/6
f 451/1/6 444/1/6 452/1/6
f 447/2/6 448/2/6 453/2/6
f 453/2/6 448/2/6 454/2/6
f 449/2/6 450/2/6 455/2/6
f 455/2/6 450/2/6 456/2/6
f 457/1/6 458/1/6 461/1/6
f 461/1/6 458/1/6 462/1/6
f 459/1/6 460/1/6 467/1/6
f 467/1/6 460/1/6 468/1/6
f 463/2/6 464/2/6 469/2/6
f 469/2/6 464/2/6 470/2/6
f 465/2/6 466/2/6 471/2/6
f 471/2/6 466/2/6 472/2/6
f 473/1/6 474/1/6 477/1/6
f 477/1/6 474/1/6 478/1/6
f 475/1/6 476/1/6 481/1/6
f 481/1/6 476/1/6 482/1/6
f 479/2/6 480/2/6 483/2/6
f 483/2/6 480/2/6 484/2/6
f 485/1/6 486/1/6 489/1/6
f 489/1/6 486/1/6 490/1/6
f 487/1/6 488/1/6 491/1/6
f 491/1/6 488/1/6 492/1/6
f 493/1/6 494/1/6 497/1/6
f 497/1/6 494/1/6 498/1/6
f 495/1/6 496/1/6 499/1/6
f 499/1/6 496/1/6 500/1/6
f 501/1/6 502/1/6 505/1/6
f 505/1/6 502/1/6 506/1/6
f 503/1/6 504/1/6 507/1/6
f 507/1/6 504/1/6 508/1/6
f 509/1/6 510/1/6 511/1/6
f 511/1/6 510/1/6 512/1/6
