# MagicaVoxel @ Ephtracy

# group
g shop2_black_n_white

# material
mtllib shop2_black_n_white.mtl
usemtl palette

# normals
vn -1 0 0
vn 1 0 0
vn 0 0 1
vn 0 0 -1
vn 0 -1 0
vn 0 1 0

# texcoords
vt 0.150391 0.5
vt 0.306641 0.5
vt 0.326172 0.5
vt 0.955078 0.5
vt 0.962891 0.5

# verts
v -9 0 5
v -9 0 4
v -9 17 4
v -9 17 -5
v -9 18 5
v -9 18 -5
v -8 0 7
v -8 0 5
v -8 0 4
v -8 0 -6
v -8 17 4
v -8 17 -5
v -8 18 5
v -8 18 -5
v -8 20 7
v -8 20 -6
v -6 18 -0
v -6 18 -4
v -6 19 -0
v -6 19 -4
v 4 18 5
v 4 18 -4
v 4 19 5
v 4 19 4
v 4 19 2
v 4 19 -0
v 4 21 4
v 4 21 2
v 4 21 -0
v 4 21 -4
v 5 19 2
v 5 19 -0
v 5 20 2
v 5 20 -0
v 7 1 5
v 7 1 -5
v 7 11 7
v 7 11 6
v 7 11 5
v 7 17 5
v 7 17 -5
v 7 18 7
v 7 18 6
v 7 18 5
v 7 18 -5
v 7 20 5
v 7 20 -5
v -7 1 5
v -7 1 -5
v -7 11 7
v -7 11 6
v -7 11 5
v -7 17 5
v -7 17 -5
v -7 18 7
v -7 18 6
v -7 18 5
v -7 18 -5
v -7 20 5
v -7 20 -5
v -3 18 -0
v -3 18 -4
v -3 19 -0
v -3 19 -4
v 6 18 5
v 6 18 -4
v 6 19 5
v 6 19 4
v 6 20 2
v 6 20 -0
v 6 21 4
v 6 21 2
v 6 21 -0
v 6 21 -4
v 8 0 7
v 8 0 -6
v 8 20 7
v 8 20 -6
v -8 0 7
v -8 20 7
v -7 0 7
v -7 7 7
v -7 11 7
v -7 18 7
v -4 3 7
v -4 4 7
v -3 0 7
v -3 3 7
v -3 4 7
v -3 7 7
v -2 3 7
v -2 9 7
v 7 3 7
v 7 9 7
v 7 11 7
v 7 18 7
v 8 0 7
v 8 20 7
v -7 11 6
v -7 18 6
v 7 11 6
v 7 18 6
v -9 0 5
v -9 18 5
v -8 0 5
v -8 18 5
v 4 19 4
v 4 21 4
v 6 19 4
v 6 21 4
v -6 18 -0
v -6 19 -0
v -3 18 -0
v -3 19 -0
v 4 19 -0
v 4 21 -0
v 5 19 -0
v 5 20 -0
v 6 20 -0
v 6 21 -0
v -7 1 -5
v -7 17 -5
v -7 18 -5
v -7 20 -5
v 7 1 -5
v 7 17 -5
v 7 18 -5
v 7 20 -5
v -7 1 5
v -7 11 5
v -7 17 5
v -7 18 5
v -7 20 5
v 4 18 5
v 4 19 5
v 6 18 5
v 6 19 5
v 7 1 5
v 7 11 5
v 7 17 5
v 7 18 5
v 7 20 5
v -9 0 4
v -9 17 4
v -8 0 4
v -8 17 4
v 4 19 2
v 4 21 2
v 5 19 2
v 5 20 2
v 6 20 2
v 6 21 2
v -6 18 -4
v -6 19 -4
v -3 18 -4
v -3 19 -4
v 4 18 -4
v 4 21 -4
v 6 18 -4
v 6 21 -4
v -9 17 -5
v -9 18 -5
v -8 17 -5
v -8 18 -5
v -8 0 -6
v -8 20 -6
v 8 0 -6
v 8 20 -6
v -8 0 7
v -7 0 7
v -3 0 7
v 8 0 7
v -7 0 6
v -3 0 6
v -9 0 5
v -8 0 5
v -9 0 4
v -8 0 4
v -8 0 -6
v 8 0 -6
v -7 17 5
v 7 17 5
v -9 17 4
v -8 17 4
v -9 17 -5
v -8 17 -5
v -7 17 -5
v 7 17 -5
v -7 18 7
v 7 18 7
v -7 18 6
v 7 18 6
v -7 1 5
v 7 1 5
v -7 1 -5
v 7 1 -5
v -7 11 7
v 7 11 7
v -7 11 6
v 7 11 6
v -9 18 5
v -8 18 5
v -7 18 5
v 4 18 5
v 6 18 5
v 7 18 5
v -6 18 -0
v -3 18 -0
v -6 18 -4
v -3 18 -4
v 4 18 -4
v 6 18 -4
v -9 18 -5
v -8 18 -5
v -7 18 -5
v 7 18 -5
v 4 19 5
v 6 19 5
v 4 19 4
v 6 19 4
v 4 19 2
v 5 19 2
v -6 19 -0
v -3 19 -0
v 4 19 -0
v 5 19 -0
v -6 19 -4
v -3 19 -4
v -8 20 7
v 8 20 7
v -7 20 5
v 7 20 5
v 5 20 2
v 6 20 2
v 5 20 -0
v 6 20 -0
v -7 20 -5
v 7 20 -5
v -8 20 -6
v 8 20 -6
v 4 21 4
v 6 21 4
v 4 21 2
v 6 21 2
v 4 21 -0
v 6 21 -0
v 4 21 -4
v 6 21 -4

# faces
f 3/4/1 2/4/1 1/4/1
f 5/4/1 3/4/1 1/4/1
f 5/4/1 4/4/1 3/4/1
f 6/4/1 4/4/1 5/4/1
f 11/3/1 10/3/1 9/3/1
f 12/3/1 10/3/1 11/3/1
f 13/3/1 8/3/1 7/3/1
f 14/3/1 10/3/1 12/3/1
f 15/3/1 13/3/1 7/3/1
f 15/3/1 14/3/1 13/3/1
f 16/3/1 10/3/1 14/3/1
f 16/3/1 14/3/1 15/3/1
f 19/5/1 18/5/1 17/5/1
f 20/5/1 18/5/1 19/5/1
f 23/5/1 22/5/1 21/5/1
f 24/5/1 22/5/1 23/5/1
f 25/5/1 22/5/1 24/5/1
f 26/5/1 22/5/1 25/5/1
f 27/5/1 25/5/1 24/5/1
f 28/5/1 25/5/1 27/5/1
f 29/5/1 22/5/1 26/5/1
f 30/5/1 22/5/1 29/5/1
f 33/5/1 32/5/1 31/5/1
f 34/5/1 32/5/1 33/5/1
f 39/3/1 36/3/1 35/3/1
f 40/3/1 36/3/1 39/3/1
f 41/3/1 36/3/1 40/3/1
f 42/3/1 38/3/1 37/3/1
f 43/3/1 38/3/1 42/3/1
f 46/3/1 45/3/1 44/3/1
f 47/3/1 45/3/1 46/3/1
f 48/3/2 49/3/2 52/3/2
f 52/3/2 49/3/2 53/3/2
f 53/3/2 49/3/2 54/3/2
f 50/3/2 51/3/2 55/3/2
f 55/3/2 51/3/2 56/3/2
f 57/3/2 58/3/2 59/3/2
f 59/3/2 58/3/2 60/3/2
f 61/5/2 62/5/2 63/5/2
f 63/5/2 62/5/2 64/5/2
f 65/5/2 66/5/2 67/5/2
f 67/5/2 66/5/2 68/5/2
f 68/5/2 66/5/2 69/5/2
f 69/5/2 66/5/2 70/5/2
f 68/5/2 69/5/2 71/5/2
f 71/5/2 69/5/2 72/5/2
f 70/5/2 66/5/2 73/5/2
f 73/5/2 66/5/2 74/5/2
f 75/3/2 76/3/2 77/3/2
f 77/3/2 76/3/2 78/3/2
f 81/3/3 80/3/3 79/3/3
f 82/3/3 80/3/3 81/3/3
f 83/3/3 80/3/3 82/3/3
f 84/3/3 80/3/3 83/3/3
f 85/2/3 82/2/3 81/2/3
f 86/2/3 82/2/3 85/2/3
f 87/2/3 85/2/3 81/2/3
f 88/4/3 86/4/3 85/4/3
f 88/2/3 85/2/3 87/2/3
f 89/2/3 82/2/3 86/2/3
f 89/4/3 86/4/3 88/4/3
f 90/3/3 83/3/3 82/3/3
f 90/2/3 82/2/3 89/2/3
f 91/3/3 89/3/3 88/3/3
f 91/3/3 88/3/3 87/3/3
f 91/3/3 90/3/3 89/3/3
f 92/3/3 83/3/3 90/3/3
f 92/3/3 90/3/3 91/3/3
f 93/3/3 91/3/3 87/3/3
f 93/1/3 92/1/3 91/1/3
f 94/3/3 83/3/3 92/3/3
f 94/1/3 92/1/3 93/1/3
f 95/3/3 83/3/3 94/3/3
f 96/3/3 80/3/3 84/3/3
f 97/3/3 95/3/3 94/3/3
f 97/3/3 96/3/3 95/3/3
f 97/3/3 93/3/3 87/3/3
f 97/3/3 94/3/3 93/3/3
f 98/3/3 80/3/3 96/3/3
f 98/3/3 96/3/3 97/3/3
f 101/1/3 100/1/3 99/1/3
f 102/1/3 100/1/3 101/1/3
f 105/4/3 104/4/3 103/4/3
f 106/4/3 104/4/3 105/4/3
f 109/5/3 108/5/3 107/5/3
f 110/5/3 108/5/3 109/5/3
f 113/5/3 112/5/3 111/5/3
f 114/5/3 112/5/3 113/5/3
f 117/5/3 116/5/3 115/5/3
f 118/5/3 116/5/3 117/5/3
f 119/5/3 116/5/3 118/5/3
f 120/5/3 116/5/3 119/5/3
f 125/3/3 122/3/3 121/3/3
f 126/3/3 122/3/3 125/3/3
f 127/3/3 124/3/3 123/3/3
f 128/3/3 124/3/3 127/3/3
f 132/3/4 133/3/4 134/3/4
f 134/3/4 133/3/4 135/3/4
f 135/3/4 133/3/4 137/3/4
f 129/3/4 130/3/4 138/3/4
f 130/1/4 131/1/4 139/1/4
f 138/3/4 130/3/4 139/3/4
f 139/1/4 131/1/4 140/1/4
f 136/3/4 137/3/4 141/3/4
f 137/3/4 133/3/4 142/3/4
f 141/3/4 137/3/4 142/3/4
f 143/4/4 144/4/4 145/4/4
f 145/4/4 144/4/4 146/4/4
f 147/5/4 148/5/4 149/5/4
f 149/5/4 148/5/4 150/5/4
f 150/5/4 148/5/4 151/5/4
f 151/5/4 148/5/4 152/5/4
f 153/5/4 154/5/4 155/5/4
f 155/5/4 154/5/4 156/5/4
f 157/5/4 158/5/4 159/5/4
f 159/5/4 158/5/4 160/5/4
f 161/4/4 162/4/4 163/4/4
f 163/4/4 162/4/4 164/4/4
f 165/3/4 166/3/4 167/3/4
f 167/3/4 166/3/4 168/3/4
f 173/3/5 170/3/5 169/3/5
f 173/2/5 171/2/5 170/2/5
f 174/3/5 172/3/5 171/3/5
f 174/2/5 171/2/5 173/2/5
f 176/3/5 173/3/5 169/3/5
f 176/3/5 174/3/5 173/3/5
f 177/4/5 176/4/5 175/4/5
f 178/3/5 174/3/5 176/3/5
f 178/4/5 176/4/5 177/4/5
f 179/3/5 174/3/5 178/3/5
f 180/3/5 172/3/5 174/3/5
f 180/3/5 174/3/5 179/3/5
f 185/4/5 184/4/5 183/4/5
f 186/4/5 184/4/5 185/4/5
f 187/3/5 182/3/5 181/3/5
f 188/3/5 182/3/5 187/3/5
f 191/3/5 190/3/5 189/3/5
f 192/3/5 190/3/5 191/3/5
f 193/3/6 194/3/6 195/3/6
f 195/3/6 194/3/6 196/3/6
f 197/3/6 198/3/6 199/3/6
f 199/3/6 198/3/6 200/3/6
f 203/3/6 204/3/6 207/3/6
f 207/3/6 204/3/6 208/3/6
f 203/3/6 207/3/6 209/3/6
f 208/3/6 204/3/6 210/3/6
f 210/3/6 204/3/6 211/3/6
f 205/3/6 206/3/6 212/3/6
f 201/4/6 202/4/6 213/4/6
f 213/4/6 202/4/6 214/4/6
f 211/3/6 212/3/6 215/3/6
f 210/3/6 211/3/6 215/3/6
f 203/3/6 209/3/6 215/3/6
f 209/3/6 210/3/6 215/3/6
f 212/3/6 206/3/6 216/3/6
f 215/3/6 212/3/6 216/3/6
f 217/5/6 218/5/6 219/5/6
f 219/5/6 218/5/6 220/5/6
f 221/5/6 222/5/6 225/5/6
f 225/5/6 222/5/6 226/5/6
f 223/5/6 224/5/6 227/5/6
f 227/5/6 224/5/6 228/5/6
f 229/3/6 230/3/6 231/3/6
f 231/3/6 230/3/6 232/3/6
f 233/5/6 234/5/6 235/5/6
f 235/5/6 234/5/6 236/5/6
f 229/3/6 231/3/6 237/3/6
f 232/3/6 230/3/6 238/3/6
f 229/3/6 237/3/6 239/3/6
f 237/3/6 238/3/6 239/3/6
f 238/3/6 230/3/6 240/3/6
f 239/3/6 238/3/6 240/3/6
f 241/5/6 242/5/6 243/5/6
f 243/5/6 242/5/6 244/5/6
f 245/5/6 246/5/6 247/5/6
f 247/5/6 246/5/6 248/5/6
